<?xml version="1.0" encoding="UTF-8"?>
<svg version="1.1" xmlns="http://www.w3.org/2000/svg" width="500" height="500">
<path d="M0 0 C1.21629845 -0.01429802 1.21629845 -0.01429802 2.45716858 -0.02888489 C3.75732155 -0.02751778 3.75732155 -0.02751778 5.08374023 -0.02612305 C6.42963478 -0.03255074 6.42963478 -0.03255074 7.80271912 -0.03910828 C9.69643307 -0.04484334 11.59016906 -0.04535791 13.48388672 -0.04101562 C16.3853895 -0.03784938 19.28587863 -0.06134649 22.18725586 -0.08666992 C24.02774936 -0.08894232 25.86824561 -0.08964669 27.70874023 -0.08862305 C28.57753311 -0.09783279 29.44632599 -0.10704254 30.34144592 -0.11653137 C31.14915939 -0.11030258 31.95687286 -0.10407379 32.7890625 -0.09765625 C33.49869644 -0.09828568 34.20833038 -0.0989151 34.93946838 -0.0995636 C37.4239237 0.39226578 38.33516298 1.25697693 39.82983398 3.2746582 C39.60652685 6.92200799 39.44610564 8.65838655 36.82983398 11.2746582 C34.32062553 11.44961426 31.92358457 11.50635389 29.41577148 11.4699707 C28.6861319 11.46714081 27.95649231 11.46431091 27.20474243 11.46139526 C24.87127371 11.45018822 22.53818696 11.42508331 20.20483398 11.3996582 C18.62411036 11.38962905 17.04338072 11.38050309 15.46264648 11.37231445 C11.58489484 11.35024726 7.7074292 11.31571435 3.82983398 11.2746582 C3.82983398 15.8946582 3.82983398 20.5146582 3.82983398 25.2746582 C7.1343457 25.22245117 7.1343457 25.22245117 10.50561523 25.16918945 C12.6402863 25.14579038 14.77494305 25.1275759 16.90966797 25.10986328 C18.39280598 25.09478052 19.87589942 25.07431131 21.35888672 25.04833984 C23.49124143 25.01193205 25.62300633 24.99492747 27.75561523 24.98168945 C29.68014526 24.95812378 29.68014526 24.95812378 31.64355469 24.93408203 C34.82983398 25.2746582 34.82983398 25.2746582 36.75634766 26.59765625 C38.38952904 29.14901466 38.08611505 31.32742599 37.82983398 34.2746582 C36.82983398 35.2746582 36.82983398 35.2746582 33.68701172 35.38818359 C32.29580701 35.38802453 30.90459638 35.38233327 29.51342773 35.37231445 C28.7823732 35.37089951 28.05131866 35.36948456 27.29811096 35.36802673 C24.95447766 35.36241229 22.61093859 35.34985742 20.26733398 35.3371582 C18.6820489 35.33214506 17.09676233 35.32758183 15.51147461 35.32348633 C11.61755788 35.31243817 7.72371193 35.29516392 3.82983398 35.2746582 C3.82983398 39.8946582 3.82983398 44.5146582 3.82983398 49.2746582 C4.8137915 49.25894775 5.79774902 49.2432373 6.81152344 49.22705078 C10.46231906 49.17274843 14.113079 49.13830735 17.76416016 49.10986328 C19.34429935 49.09477726 20.92439667 49.0743057 22.50439453 49.04833984 C24.77573984 49.01194694 27.04653157 48.99493058 29.31811523 48.98168945 C30.37764153 48.95846367 30.37764153 48.95846367 31.45857239 48.93476868 C34.34478552 48.93377846 36.35627879 48.96589905 38.81103516 50.56640625 C40.56579345 53.50866453 39.59617966 56.09137615 38.82983398 59.2746582 C35.41914517 60.98000261 31.52309618 60.41612958 27.77124023 60.4074707 C26.42110085 60.40890579 26.42110085 60.40890579 25.04368591 60.41036987 C23.13800995 60.41105107 21.23233167 60.40920101 19.32666016 60.4050293 C16.40774317 60.39968641 13.4889805 60.40497313 10.57006836 60.41137695 C8.72045864 60.41071604 6.87084903 60.4094346 5.02124023 60.4074707 C4.14617325 60.40949493 3.27110626 60.41151917 2.36952209 60.41360474 C1.55535324 60.41045258 0.74118439 60.40730042 -0.09765625 60.40405273 C-0.8133226 60.40325714 -1.52898895 60.40246155 -2.26634216 60.40164185 C-4.17016602 60.2746582 -4.17016602 60.2746582 -7.17016602 59.2746582 C-8.45583331 56.70332362 -8.2902638 54.8774872 -8.28369141 51.9987793 C-8.28361588 50.897789 -8.28354034 49.79679871 -8.28346252 48.66244507 C-8.27830124 47.46970978 -8.27313995 46.27697449 -8.26782227 45.0480957 C-8.26640732 43.83014313 -8.26499237 42.61219055 -8.26353455 41.35733032 C-8.2579224 37.4547483 -8.2453678 33.55222298 -8.23266602 29.6496582 C-8.22765258 27.00903403 -8.2230894 24.36840896 -8.21899414 21.7277832 C-8.20794902 15.24338875 -8.19119903 8.75902753 -8.17016602 2.2746582 C-5.32202816 0.66530828 -3.26504175 0.02117497 0 0 Z " fill="#41404A" transform="translate(58.170166015625,205.725341796875)"/>
<path d="M0 0 C1.5159375 -0.00773438 1.5159375 -0.00773438 3.0625 -0.015625 C6.07558515 0.25683483 8.23917157 1.06678782 11 2.25 C12.93125966 1.8925235 12.93125966 1.8925235 15 1.25 C21.39634522 0.80113367 21.39634522 0.80113367 23.68959045 2.50634766 C25.29367877 4.64077376 25.38445252 5.74873739 25.40405273 8.3984375 C25.41673691 9.22939941 25.42942108 10.06036133 25.44248962 10.91650391 C25.43955399 11.81030762 25.43661835 12.70411133 25.43359375 13.625 C25.4388356 14.54587402 25.44407745 15.46674805 25.44947815 16.41552734 C25.45590098 18.36229443 25.45455798 20.30910031 25.44604492 22.25585938 C25.43753144 25.23898167 25.46629783 28.22019181 25.49804688 31.203125 C25.49965884 33.09374942 25.49908145 34.98437725 25.49609375 36.875 C25.51294472 38.21570557 25.51294472 38.21570557 25.53013611 39.58349609 C25.4607186 45.7324788 25.4607186 45.7324788 23.16040039 48.31640625 C20.26665468 49.56690728 18.12036624 49.58195386 15 49.25 C14.01 48.59 13.02 47.93 12 47.25 C11.278125 47.745 10.55625 48.24 9.8125 48.75 C4.08045204 51.595601 -3.4075048 51.26576941 -9.4453125 49.55859375 C-15.45638914 46.82732509 -18.79728895 42.57247651 -21.8125 36.75 C-24.25642083 29.43228303 -24.27779825 20.52242969 -21.5 13.3125 C-17.06052183 4.84431388 -9.49972745 -0.048468 0 0 Z M-9 17.25 C-11.43615982 21.91930631 -11.39891574 26.25954173 -10 31.25 C-7.72972734 35.48896421 -7.72972734 35.48896421 -4 38.25 C-1.50243663 38.56305658 -1.50243663 38.56305658 1.3125 38.625 C2.25738281 38.67398438 3.20226562 38.72296875 4.17578125 38.7734375 C8.22335065 38.02326558 9.58847308 36.54748214 12 33.25 C12.47888066 30.3202022 12.66089951 28.08895587 12.5625 25.1875 C12.57345703 24.48044922 12.58441406 23.77339844 12.59570312 23.04492188 C12.54720159 19.60131306 12.29164828 17.62427168 10.15234375 14.87890625 C2.60350974 9.16590483 -3.03184717 10.23621392 -9 17.25 Z " fill="#474651" transform="translate(123,216.75)"/>
<path d="M0 0 C0.99 0.45375 1.98 0.9075 3 1.375 C3.99 0.715 4.98 0.055 6 -0.625 C9.5 -1 9.5 -1 13 -0.625 C15.03504882 1.13250211 15.88195376 2.58732659 16.2819519 5.25634766 C16.4150768 7.6344288 16.44190036 9.99318275 16.43359375 12.375 C16.4388356 13.24769531 16.44407745 14.12039062 16.44947815 15.01953125 C16.45589266 16.86196836 16.45456873 18.70444645 16.44604492 20.546875 C16.43752923 23.3653244 16.46631205 26.18175049 16.49804688 29 C16.49965888 30.79166606 16.49908137 32.58333571 16.49609375 34.375 C16.51294472 35.63763672 16.51294472 35.63763672 16.53013611 36.92578125 C16.48444278 40.76215655 16.45880478 42.7417459 14.16040039 45.9140625 C11.25887273 47.87617591 9.43480778 47.8134861 6 47.375 C5.01 46.715 4.02 46.055 3 45.375 C2.05125 45.82875 1.1025 46.2825 0.125 46.75 C-5.32537403 49.3189661 -11.12105607 49.14529426 -17 48.375 C-23.30820993 46.0132062 -28.04566469 41.17971661 -31.1015625 35.23046875 C-33.41732956 27.87035691 -33.34349865 18.45488928 -30.9375 11.1484375 C-24.93962514 0.35878218 -11.72759855 -5.6633275 0 0 Z M-17 13.375 C-20.03045315 17.97292892 -20.80399699 22.00430012 -20 27.375 C-18.58885201 30.93646874 -17.13877011 34.08128338 -14 36.375 C-9.6259536 37.99964581 -5.20134446 37.22091874 -1 35.375 C1.34394919 33.860236 1.34394919 33.860236 3 31.375 C3.45652645 28.55580094 3.65062189 26.24822128 3.625 23.4375 C3.65722656 22.73431641 3.68945312 22.03113281 3.72265625 21.30664062 C3.72809971 18.40255708 3.58404965 16.08078111 1.69042969 13.79248047 C-1.59724258 11.00806418 -4.0484177 9.46477192 -8.3125 9.0625 C-12.67300762 9.43203454 -14.02046118 10.22993125 -17 13.375 Z " fill="#4B4A54" transform="translate(328,218.625)"/>
<path d="M0 0 C3.30691996 2.54908414 4.69728775 4.12747644 6.0625 8.0625 C6 11 6 11 4.4375 13.375 C1.29063834 15.47290777 -0.28828988 15.69594565 -4 15 C-6.25 12.5625 -6.25 12.5625 -8 10 C-10.58753156 8.70623422 -12.54958985 8.83167603 -15.4375 8.8125 C-16.40558594 8.79832031 -17.37367188 8.78414062 -18.37109375 8.76953125 C-21.23266727 8.80850549 -21.23266727 8.80850549 -24 11 C-24 11.99 -24 12.98 -24 14 C-23.26136719 14.12117188 -22.52273437 14.24234375 -21.76171875 14.3671875 C-19.63325217 14.71877664 -17.50569843 15.07592022 -15.37890625 15.4375 C-13.2444317 15.79283449 -11.10655776 16.12878447 -8.96484375 16.4375 C-3.31948849 17.30721085 0.64804487 18.20598784 5 22 C7.57808386 26.22272356 7.54493906 30.18204674 7 35 C5.13589593 39.55669885 1.9443752 42.13839446 -2 45 C-10.01649284 48.31517787 -21.16162031 48.63667601 -29.25 45.3125 C-32.71219131 43.4228307 -35.04644739 41.5001151 -37 38 C-38.53984207 32.04594401 -38.53984207 32.04594401 -37 29.0625 C-33.76511449 27.34396707 -31.59498184 27.44215799 -28 28 C-25.98185778 29.81309034 -24.62186441 31.79246233 -23 34 C-18.20863728 35.59712091 -13.74150731 35.58050244 -9 34 C-8.01 33.505 -8.01 33.505 -7 33 C-7 31.68 -7 30.36 -7 29 C-9.86888459 28.04370514 -12.45194191 27.732164 -15.44702148 27.45507812 C-23.02197775 26.72074884 -29.62625961 25.50931293 -36 21 C-38.12204216 16.75591568 -37.60558157 11.59771639 -37 7 C-34.98036891 2.72225739 -31.74125023 0.05515636 -27.5 -1.9375 C-18.88999361 -4.59817376 -8.03237675 -4.26346961 0 0 Z " fill="#494852" transform="translate(190,220)"/>
<path d="M0 0 C3.125 0.4375 3.125 0.4375 5.03515625 2.4375 C7.589031 6.103623 9.64368388 9.90799771 11.6875 13.875 C12.07357422 14.61298828 12.45964844 15.35097656 12.85742188 16.11132812 C14.99016887 20.19879042 17.06739955 24.31164557 19.125 28.4375 C19.50309814 27.69588623 19.88119629 26.95427246 20.27075195 26.19018555 C21.68070432 23.43145152 23.09580085 20.6754367 24.5144043 17.92114258 C25.4269984 16.14543383 26.33365272 14.36667652 27.24023438 12.58789062 C27.81708984 11.46962891 28.39394531 10.35136719 28.98828125 9.19921875 C29.51719971 8.16756592 30.04611816 7.13591309 30.59106445 6.07299805 C31.94928718 3.73939717 33.01081229 2.09209673 35.125 0.4375 C38.125 0 38.125 0 41.125 0.4375 C43.0625 2.0625 43.0625 2.0625 44.125 4.4375 C43.72418125 9.31764402 41.99918362 13.16772393 39.75 17.4375 C39.02418435 18.84997524 38.29895773 20.26275327 37.57421875 21.67578125 C37.18153809 22.43584473 36.78885742 23.1959082 36.38427734 23.97900391 C34.55141977 27.55730476 32.77008315 31.16069025 30.98388672 34.76245117 C17.54858682 61.81997286 17.54858682 61.81997286 14.125 64.4375 C10.4375 64.625 10.4375 64.625 7.125 64.4375 C7.125 63.7775 7.125 63.1175 7.125 62.4375 C6.465 62.4375 5.805 62.4375 5.125 62.4375 C4.76050294 57.45356062 5.75858812 54.63917219 8.1875 50.3125 C10.51340201 46.61491721 10.51340201 46.61491721 10.81469727 42.48608398 C10.13448006 40.46565829 9.33016653 38.72238589 8.3046875 36.85546875 C7.75337158 35.83900269 7.75337158 35.83900269 7.19091797 34.80200195 C6.79791504 34.08359131 6.40491211 33.36518066 6 32.625 C2.92051686 26.87286337 -0.1369219 21.1134474 -3 15.25 C-3.87011719 13.49623047 -3.87011719 13.49623047 -4.7578125 11.70703125 C-6.00753937 8.04961381 -5.97084455 6.1133669 -4.875 2.4375 C-2.875 0.4375 -2.875 0.4375 0 0 Z " fill="#45444E" transform="translate(201.875,217.5625)"/>
<path d="M0 0 C6.10342124 1.06567672 8.92013748 5.22297522 12.9375 9.6875 C14.59597105 11.36232218 16.26056819 13.03116209 17.9375 14.6875 C18.29465088 14.26339844 18.65180176 13.83929688 19.01977539 13.40234375 C20.65961529 11.47902581 22.32891482 9.58371494 24 7.6875 C24.56138672 7.01976562 25.12277344 6.35203125 25.70117188 5.6640625 C28.7546455 2.24417204 30.07068855 0.81552138 34.74609375 0.125 C37.9375 0.6875 37.9375 0.6875 39.9375 2.6875 C40.69740642 6.14929591 40.3156321 8.08229118 38.44140625 11.08203125 C36.68826649 13.39646732 34.97264149 15.61552337 32.9375 17.6875 C32.2775 17.6875 31.6175 17.6875 30.9375 17.6875 C30.9375 18.3475 30.9375 19.0075 30.9375 19.6875 C30.2775 19.6875 29.6175 19.6875 28.9375 19.6875 C28.9375 20.3475 28.9375 21.0075 28.9375 21.6875 C28.2775 21.6875 27.6175 21.6875 26.9375 21.6875 C26.9375 23.3375 26.9375 24.9875 26.9375 26.6875 C27.5975 26.6875 28.2575 26.6875 28.9375 26.6875 C31.45618553 29.18757455 33.65716294 31.97039459 35.9375 34.6875 C37.1440625 35.986875 37.1440625 35.986875 38.375 37.3125 C40.37470456 40.35205094 40.48087501 42.11674991 39.9375 45.6875 C38.875 47.625 38.875 47.625 36.9375 48.6875 C33.25 48.375 33.25 48.375 29.9375 47.6875 C29.9375 47.0275 29.9375 46.3675 29.9375 45.6875 C29.3496875 45.44128906 28.761875 45.19507813 28.15625 44.94140625 C24.88837883 43.09459878 23.03037676 40.37013829 20.71875 37.46484375 C18.77369728 35.5240565 17.61843872 35.06965135 14.9375 34.6875 C14.69515625 35.25082031 14.4528125 35.81414062 14.203125 36.39453125 C12.68506855 39.14483723 10.87630553 41.12291268 8.6875 43.375 C7.93984375 44.16261719 7.1921875 44.95023437 6.421875 45.76171875 C3.49222024 48.03266183 1.62137494 48.55308835 -2.0625 48.6875 C-3.0525 48.0275 -4.0425 47.3675 -5.0625 46.6875 C-5.73384626 42.27353049 -5.5252701 40.33672193 -2.91015625 36.66796875 C-1.99105469 35.74628906 -1.07195312 34.82460937 -0.125 33.875 C3.31781882 30.57841334 3.31781882 30.57841334 5.9375 26.6875 C6.5975 26.6875 7.2575 26.6875 7.9375 26.6875 C7.36375344 23.22237274 6.26166404 21.71972768 3.6875 19.375 C-4.72280307 11.25949106 -4.72280307 11.25949106 -5.5 5.375 C-4.8623638 1.45809194 -3.82736604 0.85920462 0 0 Z " fill="#45454E" transform="translate(352.0625,217.3125)"/>
<path d="M0 0 C2.31 0 4.62 0 7 0 C7 1.98 7 3.96 7 6 C11.29 6 15.58 6 20 6 C20.84389939 14.43899387 17.75003864 22.49992272 14 30 C11.36 30 8.72 30 6 30 C6.65503282 25.94180817 7.94559121 22.46028718 9.5625 18.6875 C10.01753906 17.61886719 10.47257812 16.55023438 10.94140625 15.44921875 C11.29074219 14.64097656 11.64007813 13.83273437 12 13 C8.37 13 4.74 13 1 13 C0.9175 14.19625 0.835 15.3925 0.75 16.625 C0.19125621 20.94952387 -1.11392361 23.64591123 -4 27 C-8.60590912 29.84265715 -12.00444299 30.3394969 -17.375 30.1875 C-18.62023437 30.16042969 -19.86546875 30.13335937 -21.1484375 30.10546875 C-22.08945313 30.07066406 -23.03046875 30.03585937 -24 30 C-24.33 27.03 -24.66 24.06 -25 21 C-25.556875 22.11375 -26.11375 23.2275 -26.6875 24.375 C-27.94158791 26.88317583 -28.73204188 27.85281174 -31.21875 29.21875 C-34.52786084 30.14827552 -37.3798153 30.19434717 -40.8125 30.125 C-41.97394531 30.10695313 -43.13539063 30.08890625 -44.33203125 30.0703125 C-45.21246094 30.04710937 -46.09289062 30.02390625 -47 30 C-47 28.02 -47 26.04 -47 24 C-44.3093858 23.1031286 -42.11102904 22.72140874 -39.3125 22.4375 C-38.50425781 22.35371094 -37.69601563 22.26992188 -36.86328125 22.18359375 C-36.24839844 22.12300781 -35.63351563 22.06242187 -35 22 C-34.23043864 19.65466049 -34.23043864 19.65466049 -34 17 C-35.65439795 14.67490018 -36.66719027 14.06865838 -39.48046875 13.48828125 C-40.82044922 13.40126953 -40.82044922 13.40126953 -42.1875 13.3125 C-43.08855469 13.24675781 -43.98960937 13.18101562 -44.91796875 13.11328125 C-45.60503906 13.07589844 -46.29210937 13.03851563 -47 13 C-46.938125 13.928125 -46.87625 14.85625 -46.8125 15.8125 C-47 19 -47 19 -48.1875 20.875 C-50.54923705 22.34090576 -52.26753076 22.08049828 -55 22 C-55.02685095 19.52076199 -55.04676547 17.0418116 -55.0625 14.5625 C-55.07506836 13.50192383 -55.07506836 13.50192383 -55.08789062 12.41992188 C-55.09653588 10.61306441 -55.05220011 8.80612397 -55 7 C-52.86880244 4.86880244 -48.37026171 5.7223309 -45.4375 5.6875 C-44.65052734 5.65849609 -43.86355469 5.62949219 -43.05273438 5.59960938 C-37.27757228 5.53771563 -32.7864293 6.65512695 -28 10 C-27.67 10.66 -27.34 11.32 -27 12 C-26.34 10.02 -25.68 8.04 -25 6 C-23.02 6 -21.04 6 -19 6 C-18.34 8.64 -17.68 11.28 -17 14 C-16.855625 12.865625 -16.71125 11.73125 -16.5625 10.5625 C-16 7 -16 7 -15 6 C-12 5.875 -12 5.875 -9 6 C-8.505 6.495 -8.505 6.495 -8 7 C-8.04237555 12.12744177 -8.52627363 17.030027 -12 21 C-14.6875 21.8125 -14.6875 21.8125 -17 22 C-17 22.66 -17 23.32 -17 24 C-12.10437307 22.12297673 -12.10437307 22.12297673 -8 19 C-7.54337847 16.80708918 -7.179588 14.59414111 -6.875 12.375 C-6.70742187 11.18648438 -6.53984375 9.99796875 -6.3671875 8.7734375 C-6.18542969 7.40058594 -6.18542969 7.40058594 -6 6 C-4.02 6 -2.04 6 0 6 C0 4.02 0 2.04 0 0 Z " fill="#43424B" transform="translate(223,294)"/>
<path d="M0 0 C1.51683632 -0.01441132 1.51683632 -0.01441132 3.0643158 -0.02911377 C4.70805931 -0.03548859 4.70805931 -0.03548859 6.38500977 -0.04199219 C7.50706314 -0.04769226 8.62911652 -0.05339233 9.78517151 -0.05926514 C12.16162164 -0.06872307 14.53808494 -0.07525226 16.91455078 -0.07910156 C20.55792978 -0.08881789 24.20074739 -0.11983885 27.84399414 -0.15136719 C30.14932932 -0.15789592 32.45466855 -0.1631469 34.76000977 -0.16699219 C35.85381454 -0.17933899 36.94761932 -0.19168579 38.0745697 -0.20440674 C39.08894608 -0.20140564 40.10332245 -0.19840454 41.1484375 -0.1953125 C42.04175278 -0.19895813 42.93506805 -0.20260376 43.85545349 -0.20635986 C46.13891602 0.16113281 46.13891602 0.16113281 47.96644592 1.45684814 C49.13891602 3.16113281 49.13891602 3.16113281 48.88891602 6.78613281 C48.13891602 10.16113281 48.13891602 10.16113281 47.13891602 11.16113281 C45.65019742 11.24782713 44.15747102 11.26816775 42.66625977 11.25878906 C41.76713867 11.25556641 40.86801758 11.25234375 39.94165039 11.24902344 C38.99612305 11.24064453 38.0505957 11.23226562 37.07641602 11.22363281 C36.12702148 11.21912109 35.17762695 11.21460938 34.19946289 11.20996094 C31.84588536 11.19813391 29.49243124 11.18165307 27.13891602 11.16113281 C27.14557785 11.73076248 27.15223969 12.30039215 27.15910339 12.88728333 C27.2253972 18.80801762 27.27069169 24.72864675 27.30371094 30.6496582 C27.31881127 32.86031373 27.33929311 35.07093925 27.36523438 37.28149414 C27.40156256 40.45629274 27.41862985 43.63069578 27.43188477 46.80566406 C27.44736862 47.79637405 27.46285248 48.78708405 27.47880554 49.80781555 C27.47903214 50.72854355 27.47925873 51.64927155 27.47949219 52.59790039 C27.48615402 53.40842361 27.49281586 54.21894684 27.49967957 55.05403137 C27.04695582 57.6982421 26.26815947 58.57007836 24.13891602 60.16113281 C20.72316567 60.66986159 18.90412054 60.65115338 15.97192383 58.7734375 C13.11757703 54.70557513 13.64442191 50.77516507 13.74829102 45.92675781 C13.75395081 44.93359558 13.7596106 43.94043335 13.76544189 42.91717529 C13.78781575 39.74800222 13.83801496 36.57996361 13.88891602 33.41113281 C13.90897967 31.26140957 13.92723067 29.11166859 13.94360352 26.96191406 C13.98768362 21.69460052 14.05460568 16.42794772 14.13891602 11.16113281 C12.88594727 11.27972656 11.63297852 11.39832031 10.34204102 11.52050781 C8.69108786 11.65183363 7.04004062 11.78198043 5.38891602 11.91113281 C4.15141602 12.03294922 4.15141602 12.03294922 2.88891602 12.15722656 C-3.21378146 12.60016428 -3.21378146 12.60016428 -6.44702148 10.40722656 C-7.86108398 8.16113281 -7.86108398 8.16113281 -7.73608398 4.47363281 C-7.44733398 3.38050781 -7.15858398 2.28738281 -6.86108398 1.16113281 C-4.39884584 -0.06998626 -2.75360493 0.02106578 0 0 Z " fill="#46454F" transform="translate(248.861083984375,205.8388671875)"/>
<path d="M0 0 C1.37031372 0.02320313 1.37031372 0.02320313 2.76831055 0.046875 C5.76368846 0.1077309 8.75595978 0.20457694 11.75 0.3125 C12.81879395 0.35068848 13.88758789 0.38887695 14.98876953 0.42822266 C21.57831744 0.67556474 28.16460532 0.97251532 34.75 1.3125 C34.88926042 9.25629539 34.53851849 17.1644153 34.06030273 25.09179688 C33.97782457 26.49933677 33.9014137 27.90724419 33.83081055 29.31542969 C33.72733909 31.37534421 33.60594336 33.43351005 33.48046875 35.4921875 C33.37835083 37.31339111 33.37835083 37.31339111 33.27416992 39.17138672 C32.72363107 42.47051708 32.10407636 43.97228997 29.75 46.3125 C27.15625 46.84375 27.15625 46.84375 24.25 46.8125 C23.2909375 46.8228125 22.331875 46.833125 21.34375 46.84375 C18.75 46.3125 18.75 46.3125 17.09033203 44.62963867 C15.40703512 41.71958931 15.49277784 40.04289579 15.7109375 36.70703125 C15.77023437 35.64162109 15.82953125 34.57621094 15.890625 33.47851562 C16.00664062 31.81852539 16.00664062 31.81852539 16.125 30.125 C16.26204258 27.92343632 16.39508269 25.72161852 16.5234375 23.51953125 C16.58966309 22.5447583 16.65588867 21.56998535 16.72412109 20.56567383 C16.73266113 19.82212646 16.74120117 19.0785791 16.75 18.3125 C15.05272888 16.61522888 12.86290996 17.18337979 10.54296875 17.171875 C9.48142578 17.15253906 8.41988281 17.13320312 7.32617188 17.11328125 C5.07895442 17.07960537 2.83145261 17.06121165 0.58398438 17.05859375 C-7.59340254 16.87060784 -7.59340254 16.87060784 -10.984375 13.98828125 C-12.63777613 10.49266467 -12.73671739 8.13670806 -12.25 4.3125 C-9.86291532 -1.20824729 -5.2139856 -0.17451084 0 0 Z " fill="#5E9C42" transform="translate(421.25,164.6875)"/>
<path d="M0 0 C1.24112549 0.00398804 1.24112549 0.00398804 2.50732422 0.00805664 C9.3018953 0.05797026 16.08668632 0.2738016 22.875 0.5625 C23.84083008 0.60165527 24.80666016 0.64081055 25.80175781 0.68115234 C27.14125488 0.74423584 27.14125488 0.74423584 28.5078125 0.80859375 C29.3033252 0.84525146 30.09883789 0.88190918 30.91845703 0.91967773 C32.75 1.125 32.75 1.125 33.75 2.125 C33.84982289 3.62102498 33.88080821 5.12174345 33.8828125 6.62109375 C33.88490723 7.56436523 33.88700195 8.50763672 33.88916016 9.47949219 C33.8844873 10.49688477 33.87981445 11.51427734 33.875 12.5625 C33.87161621 13.59407227 33.86823242 14.62564453 33.86474609 15.68847656 C33.82120396 22.25625049 33.6907583 28.81447205 33.375 35.375 C33.34422363 36.11806396 33.31344727 36.86112793 33.28173828 37.62670898 C33.07537523 41.26803209 32.82020847 43.01968729 30.75 46.125 C28.7265625 46.671875 28.7265625 46.671875 26.375 46.875 C25.60414063 46.95234375 24.83328125 47.0296875 24.0390625 47.109375 C21.68371267 47.12545247 19.95040078 46.96770668 17.75 46.125 C15.64355108 42.96532663 15.51652779 42.46837691 15.73828125 38.921875 C15.80885742 37.69791016 15.80885742 37.69791016 15.88085938 36.44921875 C15.94080078 35.59972656 16.00074219 34.75023437 16.0625 33.875 C16.11083984 33.04097656 16.15917969 32.20695312 16.20898438 31.34765625 C16.50581523 26.560789 17.00106752 21.86183791 17.75 17.125 C16.98333008 17.12089111 16.21666016 17.11678223 15.42675781 17.11254883 C11.95038955 17.07963865 8.47577979 17.00899547 5 16.9375 C3.19015625 16.92879883 3.19015625 16.92879883 1.34375 16.91992188 C0.18359375 16.89091797 -0.9765625 16.86191406 -2.171875 16.83203125 C-3.77434082 16.80846558 -3.77434082 16.80846558 -5.40917969 16.78442383 C-8.25 16.125 -8.25 16.125 -10.60644531 13.7722168 C-12.60141839 10.55898253 -12.72517542 8.84720747 -12.25 5.125 C-9.94706427 -0.96133014 -5.79798214 -0.03316125 0 0 Z " fill="#5C9C3F" transform="translate(394.25,194.875)"/>
<path d="M0 0 C3.20884784 -0.08127476 6.41561761 -0.14063141 9.625 -0.1875 C10.52863281 -0.21263672 11.43226563 -0.23777344 12.36328125 -0.26367188 C17.71024149 -0.32221524 21.34014531 0.05082286 26 3 C26.66 2.01 27.32 1.02 28 0 C32.05334725 -0.586184 36.1193203 -0.47225735 40.21142578 -0.44604492 C42.22924554 -0.43758699 44.24418286 -0.46619105 46.26171875 -0.49804688 C47.54175781 -0.49740234 48.82179688 -0.49675781 50.140625 -0.49609375 C51.31141602 -0.49794678 52.48220703 -0.4997998 53.68847656 -0.50170898 C57.7013896 0.10626332 59.87814395 1.44388631 63 4 C63.90238747 6.70716242 64.11851302 8.23776768 64.09765625 11.01171875 C64.09282227 12.14770508 64.09282227 12.14770508 64.08789062 13.30664062 C64.07532227 14.48516602 64.07532227 14.48516602 64.0625 15.6875 C64.05798828 16.48478516 64.05347656 17.28207031 64.04882812 18.10351562 C64.0370585 20.06904257 64.01912348 22.03453085 64 24 C61.36 24 58.72 24 56 24 C55.67 18.72 55.34 13.44 55 8 C52.69 7.67 50.38 7.34 48 7 C48 12.61 48 18.22 48 24 C45.69 24 43.38 24 41 24 C40.67 18.39 40.34 12.78 40 7 C37.94077598 9.05922402 38.58572421 13.21708124 38.4375 16.0625 C38.37272461 17.20041992 38.37272461 17.20041992 38.30664062 18.36132812 C38.20026367 20.24065438 38.09960066 22.12030244 38 24 C35.36 24 32.72 24 30 24 C29.97314905 21.52076199 29.95323453 19.0418116 29.9375 16.5625 C29.92912109 15.85544922 29.92074219 15.14839844 29.91210938 14.41992188 C29.90346412 12.61306441 29.94779989 10.80612397 30 9 C30.33 8.67 30.66 8.34 31 8 C30.01 7.67 29.02 7.34 28 7 C27.67 12.61 27.34 18.22 27 24 C24.69 24 22.38 24 20 24 C19 23 19 23 18.90234375 19.40234375 C18.9090178 17.91403133 18.92097817 16.42573568 18.9375 14.9375 C18.94201172 14.17888672 18.94652344 13.42027344 18.95117188 12.63867188 C18.9629932 10.75908129 18.98092922 8.87953101 19 7 C15.04 7 11.08 7 7 7 C7.04125 8.11375 7.0825 9.2275 7.125 10.375 C7 14 7 14 5 16 C3.35 16 1.7 16 0 16 C0 10.72 0 5.44 0 0 Z " fill="#737278" transform="translate(307,300)"/>
<path d="M0 0 C0.33 0.99 0.66 1.98 1 3 C1.66 2.67 2.32 2.34 3 2 C3 1.67 3 1.34 3 1 C6.1875 0.6875 6.1875 0.6875 10 1 C12.9375 3.5 12.9375 3.5 15 6 C8.33998891 10.03105935 8.33998891 10.03105935 3.6875 10.25 C0.03092131 10.62036086 -0.91135097 10.93021246 -3.9375 13.3125 C-7.67424876 18.18159686 -8.79137001 21.77895242 -8 28 C-7.47302261 29.53350419 -6.9093921 31.05483289 -6.3125 32.5625 C-5.03542162 35.96804233 -4.84980685 37.70372315 -6.3125 41.0625 C-7.1478125 42.5165625 -7.1478125 42.5165625 -8 44 C-8.8971875 43.4740625 -8.8971875 43.4740625 -9.8125 42.9375 C-12.10813214 41.66695302 -12.10813214 41.66695302 -15 43 C-21.82799206 35.03400926 -21.9557164 27.23361425 -21.28125 17.13769531 C-20.50201859 11.21499548 -17.43179528 7.14685766 -13.06640625 3.29296875 C-8.65925076 0.17445522 -5.32829131 -0.55503034 0 0 Z M-1 4 C-0.67 4.99 -0.34 5.98 0 7 C0.33 6.01 0.66 5.02 1 4 C0.34 4 -0.32 4 -1 4 Z " fill="#3A3944" transform="translate(317,218)"/>
<path d="M0 0 C0.78697266 -0.02900391 1.57394531 -0.05800781 2.38476562 -0.08789062 C8.15992772 -0.14978437 12.6510707 0.96762695 17.4375 4.3125 C17.7675 4.9725 18.0975 5.6325 18.4375 6.3125 C19.0975 4.3325 19.7575 2.3525 20.4375 0.3125 C22.4175 0.3125 24.3975 0.3125 26.4375 0.3125 C26.4375 2.2925 26.4375 4.2725 26.4375 6.3125 C25.7775 5.3225 25.1175 4.3325 24.4375 3.3125 C23.4475 3.3125 22.4575 3.3125 21.4375 3.3125 C21.27314453 4.74142578 21.27314453 4.74142578 21.10546875 6.19921875 C20.86763672 8.08060547 20.86763672 8.08060547 20.625 10 C20.47417969 11.24136719 20.32335937 12.48273438 20.16796875 13.76171875 C19.4311807 17.34321787 18.71600108 19.47077393 16.4375 22.3125 C12.54969363 24.55520696 9.046405 24.52682131 4.625 24.4375 C3.46355469 24.41945313 2.30210937 24.40140625 1.10546875 24.3828125 C0.22503906 24.35960937 -0.65539062 24.33640625 -1.5625 24.3125 C-1.5625 22.3325 -1.5625 20.3525 -1.5625 18.3125 C1.1281142 17.4156286 3.32647096 17.03390874 6.125 16.75 C6.93324219 16.66621094 7.74148437 16.58242188 8.57421875 16.49609375 C9.18910156 16.43550781 9.80398437 16.37492187 10.4375 16.3125 C11.20706136 13.96716049 11.20706136 13.96716049 11.4375 11.3125 C9.78310205 8.98740018 8.77030973 8.38115838 5.95703125 7.80078125 C4.61705078 7.71376953 4.61705078 7.71376953 3.25 7.625 C2.34894531 7.55925781 1.44789063 7.49351562 0.51953125 7.42578125 C-0.16753906 7.38839844 -0.85460937 7.35101563 -1.5625 7.3125 C-1.500625 8.240625 -1.43875 9.16875 -1.375 10.125 C-1.5625 13.3125 -1.5625 13.3125 -2.75 15.1875 C-5.11173705 16.65340576 -6.83003076 16.39299828 -9.5625 16.3125 C-9.58935095 13.83326199 -9.60926547 11.3543116 -9.625 8.875 C-9.63756836 7.81442383 -9.63756836 7.81442383 -9.65039062 6.73242188 C-9.65903588 4.92556441 -9.61470011 3.11862397 -9.5625 1.3125 C-7.43130244 -0.81869756 -2.93276171 0.0348309 0 0 Z " fill="#4B4953" transform="translate(177.5625,299.6875)"/>
<path d="M0 0 C2.39614126 -0.05425226 4.79103853 -0.09379027 7.1875 -0.125 C8.19780273 -0.15013672 8.19780273 -0.15013672 9.22851562 -0.17578125 C13.25912309 -0.21510425 16.48007873 -0.04631621 20 2 C21.77250485 4.85653841 22.2429688 6.99218426 22.1953125 10.328125 C22.18886719 11.12734375 22.18242187 11.9265625 22.17578125 12.75 C22.15902344 13.575 22.14226562 14.4 22.125 15.25 C22.11597656 16.09046875 22.10695312 16.9309375 22.09765625 17.796875 C22.07415817 19.86470604 22.03828908 21.93238995 22 24 C18.35418313 24.02887512 14.70839537 24.04675585 11.0625 24.0625 C9.50112305 24.07506836 9.50112305 24.07506836 7.90820312 24.08789062 C6.91884766 24.09111328 5.92949219 24.09433594 4.91015625 24.09765625 C3.53549194 24.10551147 3.53549194 24.10551147 2.13305664 24.11352539 C0 24 0 24 -1 23 C-1.09902107 21.46218409 -1.13079567 19.91990556 -1.1328125 18.37890625 C-1.13410156 17.44369141 -1.13539062 16.50847656 -1.13671875 15.54492188 C-1.13285156 14.56072266 -1.12898438 13.57652344 -1.125 12.5625 C-1.12886719 11.58216797 -1.13273437 10.60183594 -1.13671875 9.59179688 C-1.13542969 8.65529297 -1.13414063 7.71878906 -1.1328125 6.75390625 C-1.13168457 5.89095947 -1.13055664 5.0280127 -1.12939453 4.13891602 C-1 2 -1 2 0 0 Z M7 7 C6.97311849 8.64574566 6.95365877 10.29161413 6.9375 11.9375 C6.92589844 12.85402344 6.91429688 13.77054687 6.90234375 14.71484375 C6.74050951 16.96593327 6.74050951 16.96593327 8 18 C9.99958364 18.04080783 12.00045254 18.04254356 14 18 C14 14.37 14 10.74 14 7 C11.69 7 9.38 7 7 7 Z " fill="#504F57" transform="translate(115,300)"/>
<path d="M0 0 C2.5215021 -0.08172936 5.04029917 -0.14083373 7.5625 -0.1875 C8.26697266 -0.21263672 8.97144531 -0.23777344 9.69726562 -0.26367188 C15.6401605 -0.34583171 20.46695627 0.54983705 24.91015625 4.84765625 C27.01783755 9.01013797 26.61161332 13.47002884 26 18 C23.98163151 21.53214485 21.92203467 23.80160052 18 25 C13.26320934 25.4583991 10.97331371 25.47747465 6.6875 23.375 C2.77321754 19.91586666 1.15167358 16.97175656 0.75 11.75 C1 9 1 9 2 7 C1.34 7 0.68 7 0 7 C0 4.69 0 2.38 0 0 Z M9 8 C8.47186651 13.14131184 8.47186651 13.14131184 11 17.4375 C11.66 17.953125 12.32 18.46875 13 19 C16.86279128 17.11860534 16.86279128 17.11860534 19.0625 13.5625 C19.23413684 10.87862088 19.23413684 10.87862088 17.375 8.6875 C14.83265312 6.88109564 11.57211425 5.42788575 9 8 Z " fill="#54535B" transform="translate(249,300)"/>
<path d="M0 0 C1.98 0 3.96 0 6 0 C6.33 0.66 6.66 1.32 7 2 C7.99 1.34 8.98 0.68 10 0 C13.68175404 -0.33470491 16.10293238 -0.4957479 19.375 1.3125 C21.9996797 4.03812892 22.12322475 6.62531046 22.09765625 10.23046875 C22.09443359 11.03291016 22.09121094 11.83535156 22.08789062 12.66210938 C22.07951172 13.49548828 22.07113281 14.32886719 22.0625 15.1875 C22.05798828 16.03248047 22.05347656 16.87746094 22.04882812 17.74804688 C22.03705403 19.83206155 22.0191189 21.91603977 22 24 C17.38 24 12.76 24 8 24 C8 22.02 8 20.04 8 18 C10.31 18 12.62 18 15 18 C15 14.7 15 11.4 15 8 C13.35 8 11.7 8 10 8 C8.42421759 13.29012667 7.15058556 18.60204011 6 24 C4.02 24 2.04 24 0 24 C0 16.08 0 8.16 0 0 Z " fill="#4A4951" transform="translate(276,300)"/>
<path d="M0 0 C1.24112549 0.00398804 1.24112549 0.00398804 2.50732422 0.00805664 C9.3018953 0.05797026 16.08668632 0.2738016 22.875 0.5625 C23.84083008 0.60165527 24.80666016 0.64081055 25.80175781 0.68115234 C27.14125488 0.74423584 27.14125488 0.74423584 28.5078125 0.80859375 C29.3033252 0.84525146 30.09883789 0.88190918 30.91845703 0.91967773 C32.75 1.125 32.75 1.125 33.75 2.125 C33.84982289 3.62102498 33.88080821 5.12174345 33.8828125 6.62109375 C33.88490723 7.56436523 33.88700195 8.50763672 33.88916016 9.47949219 C33.8844873 10.49688477 33.87981445 11.51427734 33.875 12.5625 C33.87161621 13.59407227 33.86823242 14.62564453 33.86474609 15.68847656 C33.82120396 22.25625049 33.6907583 28.81447205 33.375 35.375 C33.34422363 36.11806396 33.31344727 36.86112793 33.28173828 37.62670898 C33.07537523 41.26803209 32.82020847 43.01968729 30.75 46.125 C28.7265625 46.671875 28.7265625 46.671875 26.375 46.875 C25.60414063 46.95234375 24.83328125 47.0296875 24.0390625 47.109375 C21.68371267 47.12545247 19.95040078 46.96770668 17.75 46.125 C15.64355108 42.96532663 15.51652779 42.46837691 15.73828125 38.921875 C15.80885742 37.69791016 15.80885742 37.69791016 15.88085938 36.44921875 C15.94080078 35.59972656 16.00074219 34.75023437 16.0625 33.875 C16.11083984 33.04097656 16.15917969 32.20695312 16.20898438 31.34765625 C16.50581523 26.560789 17.00106752 21.86183791 17.75 17.125 C16.98333008 17.12089111 16.21666016 17.11678223 15.42675781 17.11254883 C11.95038955 17.07963865 8.47577979 17.00899547 5 16.9375 C3.19015625 16.92879883 3.19015625 16.92879883 1.34375 16.91992188 C0.18359375 16.89091797 -0.9765625 16.86191406 -2.171875 16.83203125 C-3.77434082 16.80846558 -3.77434082 16.80846558 -5.40917969 16.78442383 C-8.25 16.125 -8.25 16.125 -10.60644531 13.7722168 C-12.60141839 10.55898253 -12.72517542 8.84720747 -12.25 5.125 C-9.94706427 -0.96133014 -5.79798214 -0.03316125 0 0 Z M-11.25 5.125 C-10.72731534 7.88776177 -10.14130413 10.4510876 -9.25 13.125 C-6.12355658 14.16714781 -4.08300795 14.19916736 -0.8125 14.1171875 C0.24710937 14.10042969 1.30671875 14.08367187 2.3984375 14.06640625 C4.63298088 14.02213208 6.86738314 13.97004684 9.1015625 13.91015625 C10.16117187 13.89597656 11.22078125 13.88179687 12.3125 13.8671875 C13.76849609 13.83407471 13.76849609 13.83407471 15.25390625 13.80029297 C18.14190392 14.17598124 18.98699338 14.8700433 20.75 17.125 C20.42 17.455 20.09 17.785 19.75 18.125 C19.70224064 19.93687066 19.713065 21.75037637 19.75 23.5625 C19.79348097 27.62072409 19.66693292 31.53283595 19.1875 35.5625 C18.79099639 38.98234366 18.74536294 41.77620981 19.75 45.125 C23.7600934 45.30364631 23.7600934 45.30364631 27.75 45.125 C31.5520757 41.3229243 30.96025374 36.45718022 31.1015625 31.33203125 C31.12471527 30.58539719 31.14786804 29.83876312 31.17172241 29.06950378 C31.21921409 27.49700278 31.26446537 25.92443272 31.30761719 24.35180664 C31.3750575 21.9354398 31.45271986 19.51954461 31.53125 17.10351562 C31.57613605 15.57553878 31.62042774 14.04754434 31.6640625 12.51953125 C31.68796051 11.79353226 31.71185852 11.06753326 31.73648071 10.3195343 C31.78021008 8.58856928 31.77052775 6.85639561 31.75 5.125 C27.49682898 0.87182898 13.08306058 2.94040784 7.5 2.9375 C5.62054688 2.91913086 5.62054688 2.91913086 3.703125 2.90039062 C2.4965625 2.89845703 1.29 2.89652344 0.046875 2.89453125 C-1.04270508 2.89042236 -2.13228516 2.88631348 -3.25488281 2.88208008 C-6.3029483 3.12929439 -8.49463917 3.83577983 -11.25 5.125 Z " fill="#84A970" transform="translate(394.25,194.875)"/>
<path d="M0 0 C0.85142578 -0.020625 1.70285156 -0.04125 2.58007812 -0.0625 C7.71461014 -0.09426818 11.44610938 0.23494955 15.8125 3.25 C18.65640543 6.74580352 18.07256422 11.14093415 18 15.4375 C17.99935547 16.17419922 17.99871094 16.91089844 17.99804688 17.66992188 C17.95300904 23.10949096 17.95300904 23.10949096 16.8125 24.25 C14.5025 24.25 12.1925 24.25 9.8125 24.25 C9.4825 18.97 9.1525 13.69 8.8125 8.25 C5.1825 7.92 1.5525 7.59 -2.1875 7.25 C-2.373125 8.920625 -2.373125 8.920625 -2.5625 10.625 C-3.1875 14.25 -3.1875 14.25 -5.1875 16.25 C-7.8125 16.375 -7.8125 16.375 -10.1875 16.25 C-10.21435095 13.77076199 -10.23426547 11.2918116 -10.25 8.8125 C-10.26256836 7.75192383 -10.26256836 7.75192383 -10.27539062 6.66992188 C-10.28403588 4.86306441 -10.23970011 3.05612397 -10.1875 1.25 C-7.96857557 -0.96892443 -2.97763804 0.0176322 0 0 Z " fill="#56565D" transform="translate(149.1875,299.75)"/>
<path d="M0 0 C3.526875 -0.12375 3.526875 -0.12375 7.125 -0.25 C7.85348145 -0.28641602 8.58196289 -0.32283203 9.33251953 -0.36035156 C14.38146827 -0.44525387 17.17775887 0.77026433 21 4 C21.90238747 6.70716242 22.11851302 8.23776768 22.09765625 11.01171875 C22.09443359 11.76904297 22.09121094 12.52636719 22.08789062 13.30664062 C22.07951172 14.09232422 22.07113281 14.87800781 22.0625 15.6875 C22.05798828 16.48478516 22.05347656 17.28207031 22.04882812 18.10351562 C22.0370585 20.06904257 22.01912348 22.03453085 22 24 C19.36 24 16.72 24 14 24 C13.67 18.06 13.34 12.12 13 6 C10.36 6 7.72 6 5 6 C5 11.61 5 17.22 5 23 C3.35 23 1.7 23 0 23 C0 15.41 0 7.82 0 0 Z " fill="#3A3942" transform="translate(349,300)"/>
<path d="M0 0 C2.31 0 4.62 0 7 0 C7 1.98 7 3.96 7 6 C11.29 6 15.58 6 20 6 C20.84389939 14.43899387 17.75003864 22.49992272 14 30 C11.36 30 8.72 30 6 30 C6.65503282 25.94180817 7.94559121 22.46028718 9.5625 18.6875 C10.24505859 17.08455078 10.24505859 17.08455078 10.94140625 15.44921875 C11.29074219 14.64097656 11.64007813 13.83273437 12 13 C8.37 13 4.74 13 1 13 C1 14.65 1 16.3 1 18 C0.67 18 0.34 18 0 18 C0 14.7 0 11.4 0 8 C-1.98 8.33 -3.96 8.66 -6 9 C-6 8.01 -6 7.02 -6 6 C-4.02 6 -2.04 6 0 6 C0 4.02 0 2.04 0 0 Z " fill="#7F7E84" transform="translate(223,294)"/>
<path d="M0 0 C3.20884784 -0.08127476 6.41561761 -0.14063141 9.625 -0.1875 C10.52863281 -0.21263672 11.43226563 -0.23777344 12.36328125 -0.26367188 C13.68779297 -0.27817383 13.68779297 -0.27817383 15.0390625 -0.29296875 C15.84553223 -0.3086792 16.65200195 -0.32438965 17.48291016 -0.34057617 C20 0 20 0 26 3 C26 9.27 26 15.54 26 22 C24.35 22.33 22.7 22.66 21 23 C21 17.72 21 12.44 21 7 C16.38 7 11.76 7 7 7 C7 9.31 7 11.62 7 14 C6.34 14.66 5.68 15.32 5 16 C3.35 16 1.7 16 0 16 C0 10.72 0 5.44 0 0 Z " fill="#383742" transform="translate(307,300)"/>
<path d="M0 0 C2.39652528 -0.08139142 4.79025436 -0.14067009 7.1875 -0.1875 C7.86103516 -0.21263672 8.53457031 -0.23777344 9.22851562 -0.26367188 C13.69795374 -0.32907829 16.5083992 0.15948381 20 3 C22.90651638 6.65490083 22.22069708 11.31112795 22.125 15.75 C22.11597656 16.54277344 22.10695313 17.33554687 22.09765625 18.15234375 C22.07417012 20.10169281 22.03830137 22.05088575 22 24 C19.69 24 17.38 24 15 24 C14.67 18.72 14.34 13.44 14 8 C7.07 7.505 7.07 7.505 0 7 C0 4.69 0 2.38 0 0 Z " fill="#5D5D63" transform="translate(373,300)"/>
<path d="M0 0 C1.98 0 3.96 0 6 0 C6.33 0.66 6.66 1.32 7 2 C7.99 1.34 8.98 0.68 10 0 C13.81546222 -0.3468602 16.13278796 -0.53366895 19.4375 1.5 C19.953125 1.995 20.46875 2.49 21 3 C20.67 3.66 20.34 4.32 20 5 C18.68 4.67 17.36 4.34 16 4 C16 3.01 16 2.02 16 1 C13.97954558 1.60183749 11.97888961 2.27306096 10 3 C9.67 3.66 9.34 4.32 9 5 C10.98 5.66 12.96 6.32 15 7 C13 8 13 8 9 9 C8.01 13.95 7.02 18.9 6 24 C4.02 24 2.04 24 0 24 C0 16.08 0 8.16 0 0 Z " fill="#5F5D65" transform="translate(276,300)"/>
<path d="M0 0 C7.40640436 -0.3332882 13.2598894 -0.24523844 20 3 C22 5 22 5 22 8 C17.55790643 8.10834375 13.38585329 7.70173653 9 7 C8.67 10.3 8.34 13.6 8 17 C8.66 17.33 9.32 17.66 10 18 C9.67 18.99 9.34 19.98 9 21 C6.64828869 20.40138258 4.3140622 19.73075648 2 19 C-0.01124138 14.97751725 0.78395087 10.74266888 2 6.5625 C2.33 5.716875 2.66 4.87125 3 4 C2.34 4 1.68 4 1 4 C0.67 2.68 0.34 1.36 0 0 Z " fill="#4F4D55" transform="translate(250,301)"/>
<path d="M0 0 C0.33 0 0.66 0 1 0 C1 4.62 1 9.24 1 14 C4.30451172 13.94779297 4.30451172 13.94779297 7.67578125 13.89453125 C9.81045231 13.87113217 11.94510907 13.8529177 14.07983398 13.83520508 C15.56297199 13.82012232 17.04606544 13.79965311 18.52905273 13.77368164 C20.66140745 13.73727384 22.79317235 13.72026927 24.92578125 13.70703125 C26.85031128 13.68346558 26.85031128 13.68346558 28.8137207 13.65942383 C32 14 32 14 33.92651367 15.32299805 C35.55969506 17.87435646 35.25628106 20.05276779 35 23 C34 24 34 24 30.85717773 24.11352539 C29.46597303 24.11336633 28.07476239 24.10767506 26.68359375 24.09765625 C25.95253922 24.0962413 25.22148468 24.09482635 24.46827698 24.09336853 C22.12464368 24.08775408 19.78110461 24.07519922 17.4375 24.0625 C15.85221492 24.05748686 14.26692834 24.05292363 12.68164062 24.04882812 C8.7877239 24.03777997 4.89387795 24.02050572 1 24 C1 28.62 1 33.24 1 38 C11.89 38 22.78 38 34 38 C34 38.33 34 38.66 34 39 C22.78 39 11.56 39 0 39 C-0.33 33.72 -0.66 28.44 -1 23 C9.89 22.67 20.78 22.34 32 22 C31.01 21.34 30.02 20.68 29 20 C29 19.01 29 18.02 29 17 C19.43 16.67 9.86 16.34 0 16 C0 10.72 0 5.44 0 0 Z " fill="#838287" transform="translate(61,217)"/>
<path d="M0 0 C1.65 0.33 3.3 0.66 5 1 C4.835 1.9075 4.67 2.815 4.5 3.75 C3.89862854 7.11087503 3.89862854 7.11087503 4 11 C3.01 11.495 3.01 11.495 2 12 C0.86649466 14.01669827 0.86649466 14.01669827 0 16 C-2.475 15.01 -2.475 15.01 -5 14 C-5.33 14.99 -5.66 15.98 -6 17 C-6.99 17 -7.98 17 -9 17 C-9.61891117 8.14613181 -9.61891117 8.14613181 -7.3125 3.875 C-5 2 -5 2 -2.25 1.6875 C-1.13625 1.8421875 -1.13625 1.8421875 0 2 C0 1.34 0 0.68 0 0 Z " fill="#383742" transform="translate(162,220)"/>
<path d="M0 0 C2.14576637 -0.02685938 4.29162645 -0.04633088 6.4375 -0.0625 C7.63246094 -0.07410156 8.82742188 -0.08570313 10.05859375 -0.09765625 C13 0 13 0 14 1 C14.08700342 2.63472882 14.10701063 4.27314055 14.09765625 5.91015625 C14.09443359 6.89951172 14.09121094 7.88886719 14.08789062 8.90820312 C14.07951172 9.94912109 14.07113281 10.99003906 14.0625 12.0625 C14.05798828 13.10728516 14.05347656 14.15207031 14.04882812 15.22851562 C14.03699913 17.8190666 14.02051689 20.40950559 14 23 C15.65 23 17.3 23 19 23 C19 17.39 19 11.78 19 6 C21.64 6 24.28 6 27 6 C27 6.33 27 6.66 27 7 C24.69 7 22.38 7 20 7 C20 12.61 20 18.22 20 24 C17.69 24 15.38 24 13 24 C12.67 16.74 12.34 9.48 12 2 C8.04 2 4.08 2 0 2 C-0.33 9.26 -0.66 16.52 -1 24 C-3.31 24 -5.62 24 -8 24 C-9 23 -9 23 -9.09765625 19.40234375 C-9.0909822 17.91403133 -9.07902183 16.42573568 -9.0625 14.9375 C-9.05798828 14.17888672 -9.05347656 13.42027344 -9.04882812 12.63867188 C-9.0370068 10.75908129 -9.01907078 8.87953101 -9 7 C-8.34 7 -7.68 7 -7 7 C-7 12.28 -7 17.56 -7 23 C-5.35 22.67 -3.7 22.34 -2 22 C-2.02320313 20.83082031 -2.04640625 19.66164063 -2.0703125 18.45703125 C-2.08907821 16.90886058 -2.10727755 15.36068297 -2.125 13.8125 C-2.14175781 13.04357422 -2.15851563 12.27464844 -2.17578125 11.48242188 C-2.21266851 7.1850566 -1.9958504 3.92098169 0 0 Z " fill="#838387" transform="translate(335,300)"/>
<path d="M0 0 C0.556875 0.226875 1.11375 0.45375 1.6875 0.6875 C1.6875 1.3475 1.6875 2.0075 1.6875 2.6875 C2.3475 2.3575 3.0075 2.0275 3.6875 1.6875 C3.6875 1.3575 3.6875 1.0275 3.6875 0.6875 C6.875 0.375 6.875 0.375 10.6875 0.6875 C13.625 3.1875 13.625 3.1875 15.6875 5.6875 C11.17005029 8.42174588 8.562807 9.85283375 3.25 9.9375 C1.79787109 9.97617188 1.79787109 9.97617188 0.31640625 10.015625 C-2.3125 9.6875 -2.3125 9.6875 -4.16015625 8.359375 C-5.3125 6.6875 -5.3125 6.6875 -5.3125 3.6875 C-5.9725 3.3575 -6.6325 3.0275 -7.3125 2.6875 C-2.88173077 -0.38942308 -2.88173077 -0.38942308 0 0 Z M-0.3125 3.6875 C0.0175 4.6775 0.3475 5.6675 0.6875 6.6875 C1.0175 5.6975 1.3475 4.7075 1.6875 3.6875 C1.0275 3.6875 0.3675 3.6875 -0.3125 3.6875 Z " fill="#383843" transform="translate(316.3125,218.3125)"/>
<path d="M0 0 C1.41898766 2.64877696 2.31911019 5.08014819 3 8 C4.19544434 7.9685791 4.19544434 7.9685791 5.41503906 7.93652344 C9.02656434 7.85336678 12.63788824 7.80133966 16.25 7.75 C18.13138672 7.69972656 18.13138672 7.69972656 20.05078125 7.6484375 C21.25605469 7.63554687 22.46132813 7.62265625 23.703125 7.609375 C24.81333008 7.58842773 25.92353516 7.56748047 27.06738281 7.54589844 C30.62519334 8.09680816 31.76701723 9.2539063 34 12 C33.67 12.33 33.34 12.66 33 13 C32.95224064 14.81187066 32.963065 16.62537637 33 18.4375 C33.05805238 25.39549186 32.82433495 32.25455984 31 39 C28.94984374 34.77003334 28.76037888 31.29694779 28.8125 26.625 C28.81894531 25.35914063 28.82539063 24.09328125 28.83203125 22.7890625 C28.99539991 19.10376953 29.41285059 15.63562917 30 12 C29.23333008 11.99589111 28.46666016 11.99178223 27.67675781 11.98754883 C24.20038955 11.95463865 20.72577979 11.88399547 17.25 11.8125 C15.44015625 11.80379883 15.44015625 11.80379883 13.59375 11.79492188 C12.43359375 11.76591797 11.2734375 11.73691406 10.078125 11.70703125 C8.47565918 11.68346558 8.47565918 11.68346558 6.84082031 11.65942383 C4 11 4 11 1.63574219 8.6628418 C-0.29733425 5.51596647 -0.33757041 3.6288819 0 0 Z " fill="#6F9A5B" transform="translate(382,200)"/>
<path d="M0 0 C6.6 0 13.2 0 20 0 C20 0.33 20 0.66 20 1 C16.04 1 12.08 1 8 1 C8 2.65 8 4.3 8 6 C11.63 6 15.26 6 19 6 C19 6.33 19 6.66 19 7 C15.04 7 11.08 7 7 7 C7.04125 8.11375 7.0825 9.2275 7.125 10.375 C7 14 7 14 5 16 C3.35 16 1.7 16 0 16 C0 10.72 0 5.44 0 0 Z " fill="#6C6B72" transform="translate(307,300)"/>
<path d="M0 0 C3 0.125 3 0.125 4 1.125 C3.95762445 6.25244177 3.47372637 11.155027 0 15.125 C-2.625 15.8125 -2.625 15.8125 -5 16.125 C-5.33 16.785 -5.66 17.445 -6 18.125 C-6.66 17.135 -7.32 16.145 -8 15.125 C-7.01 14.465 -6.02 13.805 -5 13.125 C-5.66 12.795 -6.32 12.465 -7 12.125 C-7 10.145 -7 8.165 -7 6.125 C-6.34 6.785 -5.68 7.445 -5 8.125 C-4.855625 6.990625 -4.71125 5.85625 -4.5625 4.6875 C-3.84768212 0.16032009 -3.84768212 0.16032009 0 0 Z " fill="#5F5F66" transform="translate(211,299.875)"/>
<path d="M0 0 C4.62 0 9.24 0 14 0 C14.1006966 7.94728542 13.78875435 15.84800538 13.31030273 23.77929688 C13.22782457 25.18683677 13.1514137 26.59474419 13.08081055 28.00292969 C12.97733909 30.06284421 12.85594336 32.12101005 12.73046875 34.1796875 C12.66239014 35.39382324 12.59431152 36.60795898 12.52416992 37.85888672 C11.97384209 41.1567525 11.36613258 42.6701709 9 45 C6.30078125 45.390625 6.30078125 45.390625 3.3125 45.25 C2.31863281 45.21390625 1.32476562 45.1778125 0.30078125 45.140625 C-0.45847656 45.09421875 -1.21773438 45.0478125 -2 45 C-2 44.67 -2 44.34 -2 44 C3.445 43.505 3.445 43.505 9 43 C9.66 29.8 10.32 16.6 11 3 C8.70370006 1.85185003 6.92301914 1.69230191 4.375 1.4375 C3.55773437 1.35371094 2.74046875 1.26992187 1.8984375 1.18359375 C1.27195312 1.12300781 0.64546875 1.06242188 0 1 C0 0.67 0 0.34 0 0 Z " fill="#88AB78" transform="translate(442,166)"/>
<path d="M0 0 C1 2 1 2 0.9375 4.375 C0.8087913 6.99753533 0.8087913 6.99753533 2.0625 9.0625 C3 11 3 11 2.875 13.125 C2 15 2 15 0.4375 16.25 C-4.45028973 17.7539353 -8.49138097 17.75430951 -13 15.5 C-13.66 15.005 -14.32 14.51 -15 14 C-14.38125 13.87625 -13.7625 13.7525 -13.125 13.625 C-10.80879168 13.12802644 -10.80879168 13.12802644 -9 11 C-9.99 10.67 -10.98 10.34 -12 10 C-11.34 9.01 -10.68 8.02 -10 7 C-9.01 7.99 -8.02 8.98 -7 10 C-4.93597032 9.51294288 -4.93597032 9.51294288 -3 8 C-2.59270772 5.67843403 -2.25561323 3.3431213 -2 1 C-1.34 0.67 -0.68 0.34 0 0 Z " fill="#6E6D75" transform="translate(269,308)"/>
<path d="M0 0 C2.39652528 -0.08139142 4.79025436 -0.14067009 7.1875 -0.1875 C7.86103516 -0.21263672 8.53457031 -0.23777344 9.22851562 -0.26367188 C13.70864748 -0.32923478 16.39440999 0.33256351 20 3 C19.01 3.495 19.01 3.495 18 4 C17.34 3.67 16.68 3.34 16 3 C15.67 4.65 15.34 6.3 15 8 C10.05 7.67 5.1 7.34 0 7 C0 4.69 0 2.38 0 0 Z " fill="#7F7E84" transform="translate(373,300)"/>
<path d="M0 0 C0.33 0.99 0.66 1.98 1 3 C1.66 3.33 2.32 3.66 3 4 C2.1875 6.4375 2.1875 6.4375 1 9 C-2.42232972 10.14077657 -5.08673217 10.09815117 -8.6875 10.0625 C-10.45673828 10.04896484 -10.45673828 10.04896484 -12.26171875 10.03515625 C-13.16535156 10.02355469 -14.06898438 10.01195312 -15 10 C-15 8.02 -15 6.04 -15 4 C-11.66612793 2.88870931 -8.64062592 2.65184903 -5.15625 2.37890625 C-2.71174301 2.09839599 -2.71174301 2.09839599 0 0 Z " fill="#626168" transform="translate(191,314)"/>
<path d="M0 0 C1.98 0 3.96 0 6 0 C6 2.31 6 4.62 6 7 C9.96 7 13.92 7 18 7 C17.67 8.65 17.34 10.3 17 12 C16.01 12 15.02 12 14 12 C14 11.34 14 10.68 14 10 C13.01 10.495 13.01 10.495 12 11 C9.95944995 11.07065617 7.91665743 11.08421976 5.875 11.0625 C4.77929688 11.05347656 3.68359375 11.04445313 2.5546875 11.03515625 C1.29011719 11.01775391 1.29011719 11.01775391 0 11 C0 7.37 0 3.74 0 0 Z " fill="#3D3C46" transform="translate(224,295)"/>
<path d="M0 0 C2.64 0 5.28 0 8 0 C8 4.62 8 9.24 8 14 C5.36 14 2.72 14 0 14 C0 9.38 0 4.76 0 0 Z " fill="#5C5B62" transform="translate(373,310)"/>
<path d="M0 0 C1.98 0 3.96 0 6 0 C6 1.98 6 3.96 6 6 C5.34 5.01 4.68 4.02 4 3 C3.01 3 2.02 3 1 3 C0.89042969 3.95261719 0.78085938 4.90523438 0.66796875 5.88671875 C0.50941406 7.14097656 0.35085937 8.39523437 0.1875 9.6875 C0.03667969 10.92886719 -0.11414063 12.17023438 -0.26953125 13.44921875 C-0.98666474 16.93517782 -1.98034812 19.10608786 -4 22 C-5.20628008 19.66785852 -6.1654738 17.50357861 -7 15 C-7.99 15.495 -7.99 15.495 -9 16 C-8.67 14.35 -8.34 12.7 -8 11 C-7.34 11 -6.68 11 -6 11 C-5.34 9.35 -4.68 7.7 -4 6 C-5.32 5.67 -6.64 5.34 -8 5 C-8 4.01 -8 3.02 -8 2 C-3.125 3.75 -3.125 3.75 -2 6 C-1.34 4.02 -0.68 2.04 0 0 Z " fill="#585860" transform="translate(198,300)"/>
<path d="M0 0 C1.98 0.495 1.98 0.495 4 1 C3.67 1.66 3.34 2.32 3 3 C3.66 3.33 4.32 3.66 5 4 C5.39700556 7.10386165 5.50884532 10.18752068 5.65625 13.3125 C5.7696875 14.199375 5.883125 15.08625 6 16 C6.66 16.33 7.32 16.66 8 17 C7.67 17.99 7.34 18.98 7 20 C4.64828869 19.40138258 2.3140622 18.73075648 0 18 C-2.01124138 13.97751725 -1.21604913 9.74266888 0 5.5625 C0.33 4.716875 0.66 3.87125 1 3 C0.34 3 -0.32 3 -1 3 C-0.67 2.01 -0.34 1.02 0 0 Z " fill="#3F3E48" transform="translate(252,302)"/>
<path d="M0 0 C0 4.29 0 8.58 0 13 C-0.66 11.68 -1.32 10.36 -2 9 C-2.87011719 9.99193359 -2.87011719 9.99193359 -3.7578125 11.00390625 C-4.53898438 11.84824219 -5.32015625 12.69257813 -6.125 13.5625 C-6.89070312 14.40941406 -7.65640625 15.25632812 -8.4453125 16.12890625 C-11 18 -11 18 -14.3046875 17.77734375 C-15.63886719 17.39255859 -15.63886719 17.39255859 -17 17 C-15.15333916 15.76889277 -13.28212332 14.57269245 -11.375 13.4375 C-9.12552959 12.20512563 -9.12552959 12.20512563 -8 11 C-7.71778828 8.41977858 -7.55179803 5.83969815 -7.37890625 3.25 C-7.25386719 2.5075 -7.12882813 1.765 -7 1 C-5 0 -5 0 0 0 Z " fill="#6D6D75" transform="translate(223,302)"/>
<path d="M0 0 C0.99 0.33 1.98 0.66 3 1 C3 7.27 3 13.54 3 20 C1.35 20 -0.3 20 -2 20 C-2.05379226 17.04142591 -2.09357093 14.08382279 -2.125 11.125 C-2.14175781 10.28324219 -2.15851563 9.44148438 -2.17578125 8.57421875 C-2.18222656 7.76855469 -2.18867188 6.96289062 -2.1953125 6.1328125 C-2.21102295 5.01737061 -2.21102295 5.01737061 -2.22705078 3.87939453 C-2 2 -2 2 0 0 Z " fill="#383840" transform="translate(366,303)"/>
<path d="M0 0 C0 5.28 0 10.56 0 16 C-1.98 16 -3.96 16 -6 16 C-6 11.05 -6 6.1 -6 1 C-3 0 -3 0 0 0 Z " fill="#3B3B44" transform="translate(344,307)"/>
<path d="M0 0 C1.32 0.66 2.64 1.32 4 2 C4 6.62 4 11.24 4 16 C1.36 16 -1.28 16 -4 16 C-3.34 15.67 -2.68 15.34 -2 15 C-0.90963072 12.0262656 -0.96135834 11.11592499 -2 8 C-2.03954234 5.66700175 -2.04401732 3.33291811 -2 1 C-1.34 0.67 -0.68 0.34 0 0 Z " fill="#3A3842" transform="translate(132,307)"/>
<path d="M0 0 C3.5 0.25 3.5 0.25 5.5 2.25 C5.625 5.375 5.625 5.375 5.5 8.25 C-1.25 6.375 -1.25 6.375 -3.5 5.25 C-7.23639216 6.49546405 -7.68756513 7.88404953 -9.5 11.25 C-10.49 10.92 -11.48 10.59 -12.5 10.25 C-11.3758824 8.95756532 -10.25067408 7.66607925 -9.125 6.375 C-8.49851562 5.65570313 -7.87203125 4.93640625 -7.2265625 4.1953125 C-3.74012251 0.26715161 -3.74012251 0.26715161 0 0 Z " fill="#52525A" transform="translate(386.5,217.75)"/>
<path d="M0 0 C2.125 0.375 2.125 0.375 4 1 C4.95465783 3.16967689 5.14401212 4.56328793 4.3984375 6.82421875 C3.64129615 8.5684743 2.82390802 10.28627131 2 12 C1.401875 11.649375 0.80375 11.29875 0.1875 10.9375 C-2.10813214 9.66695302 -2.10813214 9.66695302 -5 11 C-5.33 8.69 -5.66 6.38 -6 4 C-5.38125 3.71125 -4.7625 3.4225 -4.125 3.125 C-1.86674235 2.06279958 -1.86674235 2.06279958 0 0 Z " fill="#3A3A44" transform="translate(307,250)"/>
<path d="M0 0 C1.98 0 3.96 0 6 0 C6.02686553 1.97909398 6.04633375 3.95828971 6.0625 5.9375 C6.07410156 7.03964844 6.08570313 8.14179688 6.09765625 9.27734375 C6 12 6 12 5 13 C3.35 13 1.7 13 0 13 C0 8.71 0 4.42 0 0 Z " fill="#393740" transform="translate(140,302)"/>
<path d="M0 0 C0.66 0 1.32 0 2 0 C3.66674321 2.91824244 4.2432008 4.97594379 4.1953125 8.328125 C4.19031738 9.0490332 4.18532227 9.76994141 4.18017578 10.51269531 C4.15286377 11.86766113 4.15286377 11.86766113 4.125 13.25 C4.08375 16.1375 4.0425 19.025 4 22 C-2.27 22 -8.54 22 -15 22 C-15 21.67 -15 21.34 -15 21 C-9.06 21 -3.12 21 3 21 C3 16.38 3 11.76 3 7 C0.03 6.505 0.03 6.505 -3 6 C-3 9.3 -3 12.6 -3 16 C-3.33 16 -3.66 16 -4 16 C-4.05410687 14.22950311 -4.09284119 12.45853151 -4.125 10.6875 C-4.14820313 9.70136719 -4.17140625 8.71523438 -4.1953125 7.69921875 C-4 5 -4 5 -2 2 C-1.34 2 -0.68 2 0 2 C0 1.34 0 0.68 0 0 Z " fill="#77767C" transform="translate(133,302)"/>
<path d="M0 0 C5 1 5 1 6 2 C6.09823937 3.66429051 6.12973631 5.33281931 6.125 7 C6.12757813 7.9075 6.13015625 8.815 6.1328125 9.75 C6 12 6 12 5 13 C3.35 13 1.7 13 0 13 C0 8.71 0 4.42 0 0 Z " fill="#3D3B45" transform="translate(169,302)"/>
<path d="M0 0 C0.74886475 0.00523682 1.49772949 0.01047363 2.26928711 0.01586914 C3.07817383 0.0190918 3.88706055 0.02231445 4.72045898 0.02563477 C5.5705957 0.03401367 6.42073242 0.04239258 7.29663086 0.05102539 C8.15063477 0.05553711 9.00463867 0.06004883 9.88452148 0.06469727 C12.00108749 0.07652166 14.11761771 0.0944577 16.23413086 0.11352539 C14.23413086 2.11352539 14.23413086 2.11352539 12.28881836 2.30883789 C10.27058919 2.24373372 8.25236003 2.17862956 6.23413086 2.11352539 C5.90413086 5.74352539 5.57413086 9.37352539 5.23413086 13.11352539 C4.90413086 13.11352539 4.57413086 13.11352539 4.23413086 13.11352539 C3.90413086 10.14352539 3.57413086 7.17352539 3.23413086 4.11352539 C1.91413086 3.78352539 0.59413086 3.45352539 -0.76586914 3.11352539 C-1.09586914 7.07352539 -1.42586914 11.03352539 -1.76586914 15.11352539 C0.21413086 15.60852539 0.21413086 15.60852539 2.23413086 16.11352539 C0.58413086 16.11352539 -1.06586914 16.11352539 -2.76586914 16.11352539 C-2.79272009 13.63428738 -2.81263462 11.15533699 -2.82836914 8.67602539 C-2.8409375 7.61544922 -2.8409375 7.61544922 -2.85375977 6.53344727 C-2.86240502 4.7265898 -2.81806926 2.91964936 -2.76586914 1.11352539 C-1.76586914 0.11352539 -1.76586914 0.11352539 0 0 Z " fill="#B2B1B5" transform="translate(170.765869140625,299.886474609375)"/>
<path d="M0 0 C0.82669189 0.00193359 1.65338379 0.00386719 2.50512695 0.00585938 C12.59759153 0.07347429 22.67342804 0.58659002 32.75 1.125 C32.75 1.455 32.75 1.785 32.75 2.125 C30.96384277 2.154729 30.96384277 2.154729 29.14160156 2.18505859 C24.72081468 2.26116995 20.30035457 2.34987894 15.87988281 2.44238281 C13.96718805 2.48064968 12.05442189 2.51550658 10.14160156 2.546875 C7.39101658 2.59257527 4.64092217 2.65056145 1.890625 2.7109375 C1.03631897 2.72248871 0.18201294 2.73403992 -0.69818115 2.74594116 C-1.49870911 2.76581085 -2.29923706 2.78568054 -3.12402344 2.80615234 C-4.17659332 2.82613785 -4.17659332 2.82613785 -5.25042725 2.8465271 C-7.56843079 3.16934665 -9.22133684 3.98373038 -11.25 5.125 C-10.875 3.1875 -10.875 3.1875 -10.25 1.125 C-7.03141294 -0.48429353 -3.5334995 -0.0198571 0 0 Z " fill="#A2BB96" transform="translate(394.25,194.875)"/>
<path d="M0 0 C2.43816585 -0.0809723 4.87364384 -0.14046972 7.3125 -0.1875 C8.34793945 -0.22520508 8.34793945 -0.22520508 9.40429688 -0.26367188 C14.55674183 -0.33834499 14.55674183 -0.33834499 16.98046875 1.51171875 C17.31691406 2.00285156 17.65335937 2.49398438 18 3 C17.071875 2.773125 16.14375 2.54625 15.1875 2.3125 C14.135625 2.209375 13.08375 2.10625 12 2 C11.5359375 2.4846875 11.071875 2.969375 10.59375 3.46875 C9 5 9 5 6.73828125 5.29296875 C5.93777344 5.25816406 5.13726562 5.22335937 4.3125 5.1875 C3.50425781 5.16042969 2.69601562 5.13335937 1.86328125 5.10546875 C1.24839844 5.07066406 0.63351562 5.03585937 0 5 C0 3.35 0 1.7 0 0 Z " fill="#47464E" transform="translate(315,301)"/>
<path d="M0 0 C1.29611206 0.0314209 1.29611206 0.0314209 2.6184082 0.06347656 C3.55620117 0.07636719 4.49399414 0.08925781 5.46020508 0.10253906 C6.43666992 0.13605469 7.41313477 0.16957031 8.41918945 0.20410156 C9.40725586 0.22214844 10.39532227 0.24019531 11.41333008 0.25878906 C13.85375788 0.30594709 16.29223715 0.37174114 18.73168945 0.45410156 C18.73168945 0.78410156 18.73168945 1.11410156 18.73168945 1.45410156 C17.46711914 1.5146875 16.20254883 1.57527344 14.8996582 1.63769531 C13.23949075 1.72211061 11.57933508 1.80675812 9.91918945 1.89160156 C9.08581055 1.93091797 8.25243164 1.97023437 7.39379883 2.01074219 C6.59135742 2.05263672 5.78891602 2.09453125 4.9621582 2.13769531 C4.22376709 2.17435303 3.48537598 2.21101074 2.72460938 2.2487793 C0.52419445 2.40252298 0.52419445 2.40252298 -2.26831055 3.45410156 C-1.93831055 6.75410156 -1.60831055 10.05410156 -1.26831055 13.45410156 C1.20668945 14.44410156 1.20668945 14.44410156 3.73168945 15.45410156 C3.73168945 15.78410156 3.73168945 16.11410156 3.73168945 16.45410156 C1.48168945 16.76660156 1.48168945 16.76660156 -1.26831055 16.45410156 C-4.38124382 13.67770162 -5.19527324 12.04883393 -5.70581055 7.89160156 C-5.18397021 3.79142749 -4.37235406 0.87531789 0 0 Z " fill="#97B987" transform="translate(414.268310546875,164.5458984375)"/>
<path d="M0 0 C0.66 1.32 1.32 2.64 2 4 C2.66 2.68 3.32 1.36 4 0 C5.32 0.33 6.64 0.66 8 1 C7.01 3.64 6.02 6.28 5 9 C2.36 9 -0.28 9 -3 9 C-2.44271087 5.65626525 -1.64826111 2.96687001 0 0 Z " fill="#636268" transform="translate(232,315)"/>
<path d="M0 0 C2.03120707 3.04681061 2.24659875 3.60118324 2.1953125 7.01171875 C2.18564453 8.14770508 2.18564453 8.14770508 2.17578125 9.30664062 C2.15902344 10.09232422 2.14226562 10.87800781 2.125 11.6875 C2.11597656 12.48478516 2.10695313 13.28207031 2.09765625 14.10351562 C2.07411585 16.069139 2.03824547 18.03460775 2 20 C-0.64 20 -3.28 20 -6 20 C-6.33 14.39 -6.66 8.78 -7 3 C-6.34 3 -5.68 3 -5 3 C-5 8.28 -5 13.56 -5 19 C-3.35 19 -1.7 19 0 19 C-0.08378906 18.29875 -0.16757812 17.5975 -0.25390625 16.875 C-0.88446712 11.00040763 -0.98934629 5.8261504 0 0 Z " fill="#807F82" transform="translate(369,304)"/>
<path d="M0 0 C0.8765625 -0.01224609 1.753125 -0.02449219 2.65625 -0.03710938 C3.49929687 -0.03904297 4.34234375 -0.04097656 5.2109375 -0.04296875 C5.9848584 -0.04707764 6.7587793 -0.05118652 7.55615234 -0.05541992 C9.625 0.1875 9.625 0.1875 12.625 2.1875 C10.08373828 2.38367816 7.54239541 2.56967248 5 2.75 C4.28714844 2.80607422 3.57429687 2.86214844 2.83984375 2.91992188 C1.78603516 2.99243164 1.78603516 2.99243164 0.7109375 3.06640625 C0.0720459 3.1135376 -0.5668457 3.16066895 -1.22509766 3.20922852 C-3.96285722 3.18155868 -6.67435268 2.63760789 -9.375 2.1875 C-9.375 6.4775 -9.375 10.7675 -9.375 15.1875 C-7.395 15.6825 -7.395 15.6825 -5.375 16.1875 C-7.025 16.1875 -8.675 16.1875 -10.375 16.1875 C-10.40185095 13.70826199 -10.42176547 11.2293116 -10.4375 8.75 C-10.45006836 7.68942383 -10.45006836 7.68942383 -10.46289062 6.60742188 C-10.47153588 4.80056441 -10.42720011 2.99362397 -10.375 1.1875 C-8.14264991 -1.04485009 -2.99806334 0.00218518 0 0 Z " fill="#8B8A8D" transform="translate(149.375,299.8125)"/>
<path d="M0 0 C2.4375 1.5 2.4375 1.5 4 3 C3.67 3.66 3.34 4.32 3 5 C1.68 4.67 0.36 4.34 -1 4 C-1 3.01 -1 2.02 -1 1 C-3.02045442 1.60183749 -5.02111039 2.27306096 -7 3 C-7.33 3.66 -7.66 4.32 -8 5 C-6.02 5.66 -4.04 6.32 -2 7 C-4.00032373 8.00016187 -5.83125748 8.49396008 -8 9 C-8.33 10.98 -8.66 12.96 -9 15 C-9.33 15 -9.66 15 -10 15 C-10.16873478 13.56274129 -10.33490737 12.12518162 -10.5 10.6875 C-10.5928125 9.88699219 -10.685625 9.08648437 -10.78125 8.26171875 C-11 6 -11 6 -11 3 C-7.72466561 -0.53736115 -4.62894074 -0.49595794 0 0 Z " fill="#7A7980" transform="translate(293,300)"/>
<path d="M0 0 C1.65 0.33 3.3 0.66 5 1 C4.67 2.65 4.34 4.3 4 6 C3.01 6 2.02 6 1 6 C-0.68798827 7.43750191 -0.68798827 7.43750191 -2 9 C-3.5625 7.75 -3.5625 7.75 -5 6 C-4.6875 3.8125 -4.6875 3.8125 -4 2 C-2.68 2 -1.36 2 0 2 C0 1.34 0 0.68 0 0 Z " fill="#353540" transform="translate(162,220)"/>
<path d="M0 0 C0.93423645 3.01031744 1.04449911 3.86650268 0 7 C-0.03954234 9.33299825 -0.04401732 11.66708189 0 14 C-1.32 14 -2.64 14 -4 14 C-4.63019694 4.82713348 -4.63019694 4.82713348 -2 1.375 C-1.34 0.92125 -0.68 0.4675 0 0 Z " fill="#37363F" transform="translate(281,309)"/>
<path d="M0 0 C6.90037881 -0.33690819 11.80585058 -0.09707471 18 3 C18.99 3 19.98 3 21 3 C21 3.66 21 4.32 21 5 C19.1875 5.6875 19.1875 5.6875 17 6 C16.319375 5.2884375 16.319375 5.2884375 15.625 4.5625 C13.9914698 2.65321269 13.9914698 2.65321269 10.8125 2.8125 C9.884375 2.874375 8.95625 2.93625 8 3 C7.67 3.66 7.34 4.32 7 5 C5.68 4.34 4.36 3.68 3 3 C3.33 2.67 3.66 2.34 4 2 C2.68 1.34 1.36 0.68 0 0 Z M3 5 C3.99 5.495 3.99 5.495 5 6 C4.34 6.66 3.68 7.32 3 8 C3 7.01 3 6.02 3 5 Z " fill="#5E5E65" transform="translate(313,217)"/>
<path d="M0 0 C4.62 0 9.24 0 14 0 C14.11527631 7.72351299 13.67526622 15.30678839 13 23 C12.67 23 12.34 23 12 23 C11.67 16.4 11.34 9.8 11 3 C8.70370006 1.85185003 6.92301914 1.69230191 4.375 1.4375 C3.55773437 1.35371094 2.74046875 1.26992187 1.8984375 1.18359375 C1.27195312 1.12300781 0.64546875 1.06242188 0 1 C0 0.67 0 0.34 0 0 Z " fill="#9FB78E" transform="translate(442,166)"/>
<path d="M0 0 C0.33 0.99 0.66 1.98 1 3 C1.66 3.33 2.32 3.66 3 4 C2.34 5.65 1.68 7.3 1 9 C-1.64 9 -4.28 9 -7 9 C-6.67 7.68 -6.34 6.36 -6 5 C-5.38125 4.9175 -4.7625 4.835 -4.125 4.75 C-1.81562433 4.18741541 -1.81562433 4.18741541 -0.75 1.9375 C-0.5025 1.298125 -0.255 0.65875 0 0 Z " fill="#3B3944" transform="translate(191,314)"/>
<path d="M0 0 C7.26 0 14.52 0 22 0 C22.33 0.66 22.66 1.32 23 2 C22.34 2.66 21.68 3.32 21 4 C20.67 3.67 20.34 3.34 20 3 C18.58672053 2.84379445 17.1664541 2.74943827 15.74609375 2.68359375 C14.89208984 2.64169922 14.03808594 2.59980469 13.15820312 2.55664062 C12.26037109 2.51732422 11.36253906 2.47800781 10.4375 2.4375 C9.53580078 2.39431641 8.63410156 2.35113281 7.70507812 2.30664062 C5.47021515 2.20021858 3.23523692 2.09820012 1 2 C0.67 1.34 0.34 0.68 0 0 Z " fill="#759960" transform="translate(417,179)"/>
<path d="M0 0 C3.63 0 7.26 0 11 0 C11.33 0.66 11.66 1.32 12 2 C11.67 2.66 11.34 3.32 11 4 C7.04 4 3.08 4 -1 4 C-0.67 2.68 -0.34 1.36 0 0 Z " fill="#3B3A42" transform="translate(374,302)"/>
<path d="M0 0 C1.134375 0.020625 2.26875 0.04125 3.4375 0.0625 C3.7675 2.0425 4.0975 4.0225 4.4375 6.0625 C2.1275 6.3925 -0.1825 6.7225 -2.5625 7.0625 C-2.2325 6.4025 -1.9025 5.7425 -1.5625 5.0625 C-2.8825 5.0625 -4.2025 5.0625 -5.5625 5.0625 C-4.43693182 0.07784091 -4.43693182 0.07784091 0 0 Z " fill="#424148" transform="translate(158.5625,247.9375)"/>
<path d="M0 0 C0.66 0.33 1.32 0.66 2 1 C0.80805531 6.52628901 -0.5991297 9.17819158 -5 13 C-5.66 12.34 -6.32 11.68 -7 11 C-7 8 -7 8 -6 6 C-5.360625 5.71125 -4.72125 5.4225 -4.0625 5.125 C-1.57998766 3.77090236 -1.03128603 2.57821507 0 0 Z " fill="#373541" transform="translate(380,223)"/>
<path d="M0 0 C5.28 0 10.56 0 16 0 C16 0.33 16 0.66 16 1 C9.565 1.495 9.565 1.495 3 2 C2.67 2.99 2.34 3.98 2 5 C2.66 5 3.32 5 4 5 C3.49287967 8.71888239 2.88391785 11.73454239 1 15 C0.875 9.25 0.875 9.25 2 7 C1.34 7 0.68 7 0 7 C0 4.69 0 2.38 0 0 Z " fill="#96969A" transform="translate(249,300)"/>
<path d="M0 0 C0.268125 0.556875 0.53625 1.11375 0.8125 1.6875 C1.4003125 2.8321875 1.4003125 2.8321875 2 4 C2.60098511 5.28716919 2.60098511 5.28716919 3.21411133 6.6003418 C4.78669253 9.2422263 4.78669253 9.2422263 7.63549805 9.65942383 C8.66715088 9.67513428 9.69880371 9.69084473 10.76171875 9.70703125 C11.87998047 9.73603516 12.99824219 9.76503906 14.15039062 9.79492188 C15.31763672 9.80072266 16.48488281 9.80652344 17.6875 9.8125 C19.45577148 9.85020508 19.45577148 9.85020508 21.25976562 9.88867188 C24.173512 9.9476546 27.08575228 9.98385371 30 10 C28 12 28 12 25.63330078 12.21459961 C22.4623218 12.14740669 19.2944681 12.0571373 16.125 11.9375 C15.02285156 11.92267578 13.92070312 11.90785156 12.78515625 11.89257812 C4.70302429 11.60287838 4.70302429 11.60287838 1.2578125 8.6484375 C-0.21361234 5.55021997 -0.3154128 3.3906876 0 0 Z " fill="#7A996C" transform="translate(382,200)"/>
<path d="M0 0 C1.98 0.495 1.98 0.495 4 1 C5.06723961 4.46222615 5.10173486 7.64039266 5.0625 11.25 C5.05347656 12.32765625 5.04445313 13.4053125 5.03515625 14.515625 C5.02355469 15.33546875 5.01195312 16.1553125 5 17 C4.67 17 4.34 17 4 17 C4 13.7 4 10.4 4 7 C2.68 7 1.36 7 0 7 C-1.125 2.25 -1.125 2.25 0 0 Z " fill="#3A3942" transform="translate(389,303)"/>
<path d="M0 0 C1.2065625 0.0309375 1.2065625 0.0309375 2.4375 0.0625 C2.1075 2.3725 1.7775 4.6825 1.4375 7.0625 C-0.2125 7.7225 -1.8625 8.3825 -3.5625 9.0625 C-3.66015625 2.91015625 -3.66015625 2.91015625 -3.5625 1.0625 C-2.5625 0.0625 -2.5625 0.0625 0 0 Z " fill="#383740" transform="translate(220.5625,301.9375)"/>
<path d="M0 0 C0.66 0.33 1.32 0.66 2 1 C2 1.66 2 2.32 2 3 C2.66 3 3.32 3 4 3 C5.7265625 4.75 5.7265625 4.75 7.625 7 C8.25664062 7.7425 8.88828125 8.485 9.5390625 9.25 C10.02117187 9.8275 10.50328125 10.405 11 11 C8 12 8 12 5.375 11.375 C4.59125 10.92125 3.8075 10.4675 3 10 C2.375 7.5625 2.375 7.5625 2 5 C0.5420814 3.20614008 0.5420814 3.20614008 -1 2 C-0.67 1.34 -0.34 0.68 0 0 Z " fill="#66666B" transform="translate(377,241)"/>
<path d="M0 0 C0.33 0 0.66 0 1 0 C1.66773568 6.84429072 -1.30945136 10.46417704 -5 16 C-5.66 16 -6.32 16 -7 16 C-5.35433477 10.31497465 -2.70967216 5.23318364 0 0 Z " fill="#706F75" transform="translate(234,221)"/>
<path d="M0 0 C2.97 0 5.94 0 9 0 C9 0.33 9 0.66 9 1 C6.69 1 4.38 1 2 1 C2.14095064 2.6254308 2.28792087 4.25034051 2.4375 5.875 C2.55931641 7.23238281 2.55931641 7.23238281 2.68359375 8.6171875 C2.86989285 11.01110861 2.86989285 11.01110861 4 13 C2.68 13 1.36 13 0 13 C0 8.71 0 4.42 0 0 Z " fill="#63646A" transform="translate(120,306)"/>
<path d="M0 0 C0.33 0 0.66 0 1 0 C1.16772931 3.77078686 1.33400125 7.54163659 1.5 11.3125 C1.54769531 12.38435547 1.59539062 13.45621094 1.64453125 14.56054688 C1.68964844 15.58857422 1.73476563 16.61660156 1.78125 17.67578125 C1.82314453 18.62364502 1.86503906 19.57150879 1.90820312 20.5480957 C1.9762031 22.36438224 2 24.18244098 2 26 C0.50463867 24.83276367 0.50463867 24.83276367 -1 23 C-1.2487793 20.5480957 -1.2487793 20.5480957 -1.07421875 17.67578125 C-1.01943359 16.64775391 -0.96464844 15.61972656 -0.90820312 14.56054688 C-0.83537109 13.48869141 -0.76253906 12.41683594 -0.6875 11.3125 C-0.62626953 10.22904297 -0.56503906 9.14558594 -0.50195312 8.02929688 C-0.3486115 5.35171622 -0.18075343 2.67584718 0 0 Z " fill="#A5BE95" transform="translate(438,184)"/>
<path d="M0 0 C1.4540625 0.0309375 1.4540625 0.0309375 2.9375 0.0625 C2.6075 1.3825 2.2775 2.7025 1.9375 4.0625 C0.6175 3.7325 -0.7025 3.4025 -2.0625 3.0625 C-2.3925 7.0225 -2.7225 10.9825 -3.0625 15.0625 C-1.0825 15.5575 -1.0825 15.5575 0.9375 16.0625 C-0.7125 16.0625 -2.3625 16.0625 -4.0625 16.0625 C-4.08935095 13.58326199 -4.10926547 11.1043116 -4.125 8.625 C-4.13756836 7.56442383 -4.13756836 7.56442383 -4.15039062 6.48242188 C-4.15903588 4.67556441 -4.11470011 2.86862397 -4.0625 1.0625 C-3.0625 0.0625 -3.0625 0.0625 0 0 Z " fill="#949398" transform="translate(172.0625,299.9375)"/>
<path d="M0 0 C2.00720923 0.28674418 4.0085944 0.61866701 6 1 C6 1.66 6 2.32 6 3 C5.34 3 4.68 3 4 3 C4 3.99 4 4.98 4 6 C1.69 6 -0.62 6 -3 6 C-1.125 1.125 -1.125 1.125 0 0 Z " fill="#373640" transform="translate(361,243)"/>
<path d="M0 0 C1.125 1.625 1.125 1.625 2 4 C1.34838935 6.00495586 0.67735217 8.00359361 0 10 C-0.47466461 13.99126589 -0.75335345 17.98874822 -1 22 C-1.33 22 -1.66 22 -2 22 C-2.05401695 19.08308475 -2.09368066 16.16717276 -2.125 13.25 C-2.14175781 12.425 -2.15851563 11.6 -2.17578125 10.75 C-2.18222656 9.95078125 -2.18867188 9.1515625 -2.1953125 8.328125 C-2.20578613 7.5949707 -2.21625977 6.86181641 -2.22705078 6.10644531 C-1.96777544 3.70103924 -1.19225925 2.08748506 0 0 Z " fill="#79797E" transform="translate(298,229)"/>
<path d="M0 0 C-0.5775 0.2475 -1.155 0.495 -1.75 0.75 C-4.31545762 2.17525423 -5.99948998 3.86612265 -8 6 C-8.66 6.66 -9.32 7.32 -10 8 C-12.625 7.625 -12.625 7.625 -15 7 C-10.34876969 1.95009281 -6.95985625 -0.39770607 0 0 Z " fill="#6C6C71" transform="translate(122,217)"/>
<path d="M0 0 C0.66 0.33 1.32 0.66 2 1 C1.1875 2.9375 1.1875 2.9375 0 5 C-0.99 5.33 -1.98 5.66 -3 6 C-4.69882448 8.49759982 -4.69882448 8.49759982 -6 11 C-6.99 10.67 -7.98 10.34 -9 10 C-7.8758824 8.70756532 -6.75067408 7.41607925 -5.625 6.125 C-4.99851562 5.40570313 -4.37203125 4.68640625 -3.7265625 3.9453125 C-2.52573166 2.5923402 -1.2791655 1.2791655 0 0 Z " fill="#7F7E84" transform="translate(383,218)"/>
<path d="M0 0 C1.670625 0.061875 1.670625 0.061875 3.375 0.125 C3.375 0.455 3.375 0.785 3.375 1.125 C1.395 1.125 -0.585 1.125 -2.625 1.125 C-1.965 2.775 -1.305 4.425 -0.625 6.125 C-1.615 6.125 -2.605 6.125 -3.625 6.125 C-3.295 7.775 -2.965 9.425 -2.625 11.125 C-4.125 10 -4.125 10 -5.625 8.125 C-5.9375 5.0625 -5.9375 5.0625 -5.625 2.125 C-3.625 0.125 -3.625 0.125 0 0 Z " fill="#848389" transform="translate(352.625,217.875)"/>
<path d="M0 0 C2.45862401 -0.05383848 4.9160755 -0.09359038 7.375 -0.125 C8.42300781 -0.15013672 8.42300781 -0.15013672 9.4921875 -0.17578125 C11.32897486 -0.19344267 13.16601963 -0.10303261 15 0 C15.66 0.66 16.32 1.32 17 2 C12.08739375 3.47378188 6.97436509 3.01248139 2 2 C1.34 1.34 0.68 0.68 0 0 Z " fill="#939295" transform="translate(349,300)"/>
<path d="M0 0 C4.49652778 -0.36458333 4.49652778 -0.36458333 6.8125 1.3125 C8 3 8 3 8 6 C5.6875 6.25 5.6875 6.25 3 6 C1.02389614 3.95575462 0 2.8823175 0 0 Z " fill="#373540" transform="translate(264,303)"/>
<path d="M0 0 C0.66 0.33 1.32 0.66 2 1 C1.5205537 5.21912747 0.83374881 7.79663178 -2 11 C-3.23666047 7.42742531 -2.89093449 4.64473199 -2 1 C-1.34 0.67 -0.68 0.34 0 0 Z " fill="#5B5A63" transform="translate(244,221)"/>
<path d="M0 0 C0.99 0 1.98 0 3 0 C2.88541307 1.43836751 2.75790884 2.87570966 2.625 4.3125 C2.55539063 5.11300781 2.48578125 5.91351563 2.4140625 6.73828125 C2 9 2 9 0 12 C0.33 10.02 0.66 8.04 1 6 C0.01 5.67 -0.98 5.34 -2 5 C-1.34 4.67 -0.68 4.34 0 4 C0 2.68 0 1.36 0 0 Z " fill="#707076" transform="translate(212,301)"/>
<path d="M0 0 C1.32 0 2.64 0 4 0 C3.67 2.31 3.34 4.62 3 7 C2.01 7 1.02 7 0 7 C-0.38133299 5.0085944 -0.71325582 3.00720923 -1 1 C-0.67 0.67 -0.34 0.34 0 0 Z " fill="#383640" transform="translate(225,296)"/>
<path d="M0 0 C0.66 0 1.32 0 2 0 C1.98839844 0.67546875 1.97679687 1.3509375 1.96484375 2.046875 C1.95582031 2.93890625 1.94679688 3.8309375 1.9375 4.75 C1.92589844 5.63171875 1.91429687 6.5134375 1.90234375 7.421875 C1.99173802 9.7818838 2.33087179 11.74498524 3 14 C2.34 14 1.68 14 1 14 C-2 6.8 -2 6.8 -2 3 C-1.34 3 -0.68 3 0 3 C0 2.01 0 1.02 0 0 Z " fill="#606066" transform="translate(307,236)"/>
<path d="M0 0 C0.66 0 1.32 0 2 0 C2 1.65 2 3.3 2 5 C0.68 5 -0.64 5 -2 5 C-2.66 6.65 -3.32 8.3 -4 10 C-4.33 10 -4.66 10 -5 10 C-5 8.02 -5 6.04 -5 4 C-4.34 4 -3.68 4 -3 4 C-2.67 3.34 -2.34 2.68 -2 2 C-2 2.66 -2 3.32 -2 4 C-1.01 4 -0.02 4 1 4 C0.67 2.68 0.34 1.36 0 0 Z " fill="#393740" transform="translate(238,310)"/>
<path d="M0 0 C1.4540625 0.0309375 1.4540625 0.0309375 2.9375 0.0625 C2.9375 2.0425 2.9375 4.0225 2.9375 6.0625 C2.2775 5.0725 1.6175 4.0825 0.9375 3.0625 C-0.0525 3.0625 -1.0425 3.0625 -2.0625 3.0625 C-2.3925 5.0425 -2.7225 7.0225 -3.0625 9.0625 C-3.3925 9.0625 -3.7225 9.0625 -4.0625 9.0625 C-4.16015625 2.91015625 -4.16015625 2.91015625 -4.0625 1.0625 C-3.0625 0.0625 -3.0625 0.0625 0 0 Z " fill="#96969F" transform="translate(201.0625,299.9375)"/>
<path d="M0 0 C0.66 0.33 1.32 0.66 2 1 C2.36190476 6.42857143 2.36190476 6.42857143 0.8125 8.875 C-1.56036279 10.34781139 -3.25913944 10.22223194 -6 10 C-4.68 9.67 -3.36 9.34 -2 9 C-2.33 7.68 -2.66 6.36 -3 5 C-2.01 4.67 -1.02 4.34 0 4 C0 2.68 0 1.36 0 0 Z " fill="#737276" transform="translate(390,256)"/>
<path d="M0 0 C2.97 0.495 2.97 0.495 6 1 C5.690625 1.7425 5.38125 2.485 5.0625 3.25 C4.1905075 5.50692176 3.52332993 7.6450153 3 10 C0 3.375 0 3.375 0 0 Z " fill="#605F6F" transform="translate(152,251)"/>
<path d="M0 0 C0.74342169 2.78783135 1 5.12277417 1 8 C0.01 8.33 -0.98 8.66 -2 9 C-2.33 9.66 -2.66 10.32 -3 11 C-3.99 11 -4.98 11 -6 11 C-4.18690997 7.22272911 -2.0926741 3.62730178 0 0 Z " fill="#6A6A6E" transform="translate(226,237)"/>
<path d="M0 0 C-1.47692308 4.67692308 -1.47692308 4.67692308 -4.125 6.3125 C-5.053125 6.6528125 -5.053125 6.6528125 -6 7 C-6 5.68 -6 4.36 -6 3 C-2.78571429 0 -2.78571429 0 0 0 Z " fill="#57565E" transform="translate(222,315)"/>
<path d="M0 0 C0.3125 2.3125 0.3125 2.3125 0 5 C-2.3125 6.875 -2.3125 6.875 -5 8 C-5.99 7.67 -6.98 7.34 -8 7 C-6.8572081 5.83035398 -5.71068285 4.66435444 -4.5625 3.5 C-3.92441406 2.8503125 -3.28632813 2.200625 -2.62890625 1.53125 C-1 0 -1 0 0 0 Z " fill="#383641" transform="translate(222,310)"/>
<path d="M0 0 C1.485 0.99 1.485 0.99 3 2 C2.67 4.31 2.34 6.62 2 9 C1.34 9 0.68 9 0 9 C-1.125 3.375 -1.125 3.375 0 0 Z " fill="#5B5B62" transform="translate(95,256)"/>
<path d="M0 0 C0.99 0.99 1.98 1.98 3 3 C1.35 4.32 -0.3 5.64 -2 7 C-2.66 6.01 -3.32 5.02 -4 4 C-2.68 2.68 -1.36 1.36 0 0 Z " fill="#626267" transform="translate(116,227)"/>
<path d="M0 0 C2.97 0.495 2.97 0.495 6 1 C4.35 2.98 2.7 4.96 1 7 C-1 4 -1 4 -0.625 1.8125 C-0.41875 1.214375 -0.2125 0.61625 0 0 Z " fill="#5D5D65" transform="translate(310,227)"/>
<path d="M0 0 C3.375 -0.125 3.375 -0.125 7 0 C9 2 9 2 9.125 4.625 C9.08375 5.40875 9.0425 6.1925 9 7 C7.2925002 5.71937515 5.62626404 4.38232443 4 3 C4 2.34 4 1.68 4 1 C2.68 0.67 1.36 0.34 0 0 Z " fill="#616064" transform="translate(334,218)"/>
<path d="M0 0 C2 1 2 1 2 1 Z M-1 1 C-0.67 2.32 -0.34 3.64 0 5 C-2.375 5.625 -2.375 5.625 -5 6 C-5.66 5.34 -6.32 4.68 -7 4 C-5.02 3.01 -3.04 2.02 -1 1 Z " fill="#393741" transform="translate(267,318)"/>
<path d="M0 0 C0.5775 0.45375 1.155 0.9075 1.75 1.375 C3.7800333 2.84113516 5.73539843 3.94857784 8 5 C6.03533587 6.06775224 4.03144641 7.06553465 2 8 C1.34 7.67 0.68 7.34 0 7 C0.66 6.01 1.32 5.02 2 4 C1.01 3.67 0.02 3.34 -1 3 C-0.67 2.01 -0.34 1.02 0 0 Z " fill="#515059" transform="translate(258,315)"/>
<path d="M0 0 C1.65 0 3.3 0 5 0 C4.625 2.4375 4.625 2.4375 4 5 C3.01 5.495 3.01 5.495 2 6 C1.34 5.67 0.68 5.34 0 5 C0 3.35 0 1.7 0 0 Z " fill="#3E3D46" transform="translate(189,306)"/>
<path d="M0 0 C0.33 0.99 0.66 1.98 1 3 C1.99 3 2.98 3 4 3 C3.01 3.495 3.01 3.495 2 4 C2.33 5.98 2.66 7.96 3 10 C-0.2542015 7.16569547 -1.5206753 5.31392226 -2 1 C-1.34 0.67 -0.68 0.34 0 0 Z " fill="#6C6B74" transform="translate(299,250)"/>
<path d="M0 0 C0.99 0 1.98 0 3 0 C3.33 0.99 3.66 1.98 4 3 C3.34 3 2.68 3 2 3 C2.33 3.99 2.66 4.98 3 6 C1.35 5.67 -0.3 5.34 -2 5 C-1.125 1.125 -1.125 1.125 0 0 Z " fill="#565460" transform="translate(331,259)"/>
<path d="M0 0 C0.66 0.33 1.32 0.66 2 1 C-0.64960955 4.63094642 -3.01824456 6.89851796 -7 9 C-5.44499019 5.18315774 -2.96404505 2.80804268 0 0 Z " fill="#6B6A6F" transform="translate(306,220)"/>
<path d="M0 0 C-0.99 1.485 -0.99 1.485 -2 3 C-2.33 2.67 -2.66 2.34 -3 2 C-5.18292774 1.76518307 -7.37203174 1.58636677 -9.5625 1.4375 C-11.35880859 1.31181641 -11.35880859 1.31181641 -13.19140625 1.18359375 C-14.11824219 1.12300781 -15.04507812 1.06242188 -16 1 C-16 0.67 -16 0.34 -16 0 C-14.08416353 -0.1958009 -12.16727461 -0.38132214 -10.25 -0.5625 C-8.64898437 -0.71912109 -8.64898437 -0.71912109 -7.015625 -0.87890625 C-4.35858796 -0.98560074 -2.50039428 -0.81930395 0 0 Z " fill="#8AA77B" transform="translate(440,180)"/>
<path d="M0 0 C0.433125 0.66 0.86625 1.32 1.3125 2 C2.1478125 2.99 2.1478125 2.99 3 4 C3.99 4 4.98 4 6 4 C5.67 4.99 5.34 5.98 5 7 C3.35 7 1.7 7 0 7 C0 4.69 0 2.38 0 0 Z " fill="#4A4950" transform="translate(140,308)"/>
<path d="M0 0 C0.268125 0.556875 0.53625 1.11375 0.8125 1.6875 C3.53577357 7.07195042 3.53577357 7.07195042 8 11 C5.02545866 10.67842796 3.40664722 10.37860258 1.1875 8.3125 C-0.3082321 5.39975854 -0.22022756 3.23000416 0 0 Z " fill="#A7C0A1" transform="translate(382,200)"/>
<path d="M0 0 C1.98 0.99 1.98 0.99 4 2 C3.01 4.97 2.02 7.94 1 11 C0.67 11 0.34 11 0 11 C0 7.37 0 3.74 0 0 Z " fill="#5C5C65" transform="translate(198,304)"/>
<path d="M0 0 C0.144375 0.61875 0.28875 1.2375 0.4375 1.875 C0.93152225 4.03258322 0.93152225 4.03258322 2 6 C0.02 6.33 -1.96 6.66 -4 7 C-2.92598892 4.08482708 -2.22189824 2.22189824 0 0 Z " fill="#616069" transform="translate(157,222)"/>
<path d="M0 0 C1.45947705 0.06006078 2.91779272 0.1488689 4.375 0.25 C5.59316406 0.31960938 5.59316406 0.31960938 6.8359375 0.390625 C9 1 9 1 10.2890625 3.046875 C10.64097656 4.01367188 10.64097656 4.01367188 11 5 C10.484375 4.71125 9.96875 4.4225 9.4375 4.125 C6.37643275 2.71219973 3.25055082 1.8751483 0 1 C0 0.67 0 0.34 0 0 Z " fill="#6D6C72" transform="translate(262,301)"/>
<path d="M0 0 C0.33 0.66 0.66 1.32 1 2 C1.99 2 2.98 2 4 2 C4.33 2.99 4.66 3.98 5 5 C3.68 5 2.36 5 1 5 C-0.67225729 5.30404678 -2.34080104 5.63128912 -4 6 C-3.34 5.01 -2.68 4.02 -2 3 C-1.34 3 -0.68 3 0 3 C0 2.01 0 1.02 0 0 Z " fill="#72717B" transform="translate(133,260)"/>
<path d="M0 0 C1.20628008 2.33214148 2.1654738 4.49642139 3 7 C2.01 7.66 1.02 8.32 0 9 C-1 8 -1 8 -1.125 4.5 C-1 1 -1 1 0 0 Z " fill="#69686F" transform="translate(348,256)"/>
<path d="M0 0 C0 0.99 0 1.98 0 3 C-1.98 3.33 -3.96 3.66 -6 4 C-6.33 3.34 -6.66 2.68 -7 2 C-4.35261084 0.5393715 -3.10551666 0 0 0 Z " fill="#36363F" transform="translate(121,218)"/>
<path d="M0 0 C0.78375 0.04125 1.5675 0.0825 2.375 0.125 C2.705 0.785 3.035 1.445 3.375 2.125 C2.735625 2.24875 2.09625 2.3725 1.4375 2.5 C0.756875 2.70625 0.07625 2.9125 -0.625 3.125 C-0.955 3.785 -1.285 4.445 -1.625 5.125 C-2.615 4.795 -3.605 4.465 -4.625 4.125 C-4.625 0.73492581 -3.1763743 0.15125592 0 0 Z " fill="#494851" transform="translate(365.625,301.875)"/>
<path d="M0 0 C0.639375 0.165 1.27875 0.33 1.9375 0.5 C4.04582216 1.24598544 4.04582216 1.24598544 6 0 C6 1.32 6 2.64 6 4 C5.34 4 4.68 4 4 4 C3.67 4.66 3.34 5.32 3 6 C2.67 5.01 2.34 4.02 2 3 C1.01 2.34 0.02 1.68 -1 1 C-0.67 0.67 -0.34 0.34 0 0 Z " fill="#4D4C56" transform="translate(375,235)"/>
<path d="M0 0 C2.31 0 4.62 0 7 0 C7.66 1.32 8.32 2.64 9 4 C6.03 3.505 6.03 3.505 3 3 C3 2.34 3 1.68 3 1 C2.01 0.67 1.02 0.34 0 0 Z " fill="#63636B" transform="translate(138,218)"/>
<path d="M0 0 C1.1446875 0.495 1.1446875 0.495 2.3125 1 C4.99069135 2.17436686 4.99069135 2.17436686 8 2 C8 2.66 8 3.32 8 4 C6.68 4.33 5.36 4.66 4 5 C2.68 3.35 1.36 1.7 0 0 Z " fill="#717179" transform="translate(326,218)"/>
</svg>
